<svg width="775" height="335" viewBox="0 0 775 335" fill="none" xmlns="http://www.w3.org/2000/svg">
<path d="M563.689 205.861C589.589 205.236 617.355 219.873 624.725 244.924L484.131 239.151C486.79 237.297 489.461 235.467 492.144 233.659C513.716 219.188 537.789 206.486 563.689 205.861Z" fill="#F2F2F2"/>
<path d="M772.069 285.538C753.373 298.573 735.127 312.484 714.295 321.533C662.712 343.94 603.331 333.49 549.056 318.927C494.78 304.363 439.376 285.859 383.708 293.365C352.141 297.622 322.34 310.078 291.87 319.424C261.4 328.769 228.616 335.027 197.875 326.637C167.133 318.246 139.404 291.639 138.601 259.527C370.683 216.247 585.849 214.962 772.069 285.538Z" fill="#F2F2F2"/>
<path d="M460.424 69.5798H605.753C607.826 69.5812 609.814 70.4124 611.28 71.8909C612.746 73.3695 613.57 75.3744 613.571 77.4654V130.871C613.57 132.962 612.746 134.966 611.28 136.445C609.814 137.924 607.826 138.755 605.753 138.756H460.424C458.351 138.755 456.363 137.924 454.897 136.445C453.431 134.966 452.607 132.962 452.606 130.871V77.4654C452.607 75.3744 453.431 73.3695 454.897 71.8909C456.363 70.4124 458.351 69.5812 460.424 69.5798Z" fill="#E6E6E6"/>
<path d="M599.074 69.5798H603.073V138.756H599.074V69.5798Z" fill="#CCCCCC"/>
<path d="M582.078 69.5798H586.077V138.756H582.078V69.5798Z" fill="#CCCCCC"/>
<path d="M565.082 69.5798H569.081V138.756H565.082V69.5798Z" fill="#CCCCCC"/>
<path d="M548.085 69.5798H552.084V138.756H548.085V69.5798Z" fill="#CCCCCC"/>
<path d="M531.089 69.5798H535.088V138.756H531.089V69.5798Z" fill="#CCCCCC"/>
<path d="M514.093 69.5798H518.092V138.756H514.093V69.5798Z" fill="#CCCCCC"/>
<path d="M497.096 69.5798H501.095V138.756H497.096V69.5798Z" fill="#CCCCCC"/>
<path d="M480.1 69.5798H484.099V138.756H480.1V69.5798Z" fill="#CCCCCC"/>
<path d="M463.104 69.5798H467.103V138.756H463.104V69.5798Z" fill="#CCCCCC"/>
<path d="M103.501 69.5798H248.83C250.903 69.5812 252.891 70.4124 254.357 71.8909C255.823 73.3695 256.647 75.3744 256.648 77.4654V130.871C256.647 132.962 255.823 134.966 254.357 136.445C252.891 137.924 250.903 138.755 248.83 138.756H103.501C101.428 138.755 99.4405 137.924 97.9746 136.445C96.5087 134.966 95.6845 132.962 95.6832 130.871V77.4654C95.6845 75.3744 96.5087 73.3695 97.9746 71.8909C99.4405 70.4124 101.428 69.5812 103.501 69.5798Z" fill="#E6E6E6"/>
<path d="M242.152 69.5798H246.151V138.756H242.152V69.5798Z" fill="#CCCCCC"/>
<path d="M225.155 69.5798H229.154V138.756H225.155V69.5798Z" fill="#CCCCCC"/>
<path d="M208.159 69.5798H212.158V138.756H208.159V69.5798Z" fill="#CCCCCC"/>
<path d="M191.162 69.5798H195.162V138.756H191.162V69.5798Z" fill="#CCCCCC"/>
<path d="M174.166 69.5798H178.165V138.756H174.166V69.5798Z" fill="#CCCCCC"/>
<path d="M157.17 69.5798H161.169V138.756H157.17V69.5798Z" fill="#CCCCCC"/>
<path d="M140.173 69.5798H144.173V138.756H140.173V69.5798Z" fill="#CCCCCC"/>
<path d="M123.177 69.5798H127.176V138.756H123.177V69.5798Z" fill="#CCCCCC"/>
<path d="M106.181 69.5798H110.18V138.756H106.181V69.5798Z" fill="#CCCCCC"/>
<path d="M265.466 69.5798H410.795C412.868 69.5812 414.856 70.4124 416.322 71.8909C417.788 73.3695 418.612 75.3744 418.613 77.4654V130.871C418.612 132.962 417.788 134.966 416.322 136.445C414.856 137.924 412.868 138.755 410.795 138.756H265.466C263.393 138.755 261.406 137.924 259.94 136.445C258.474 134.966 257.649 132.962 257.648 130.871V77.4654C257.649 75.3744 258.474 73.3695 259.94 71.8909C261.405 70.4124 263.393 69.5812 265.466 69.5798Z" fill="#E6E6E6"/>
<path d="M404.116 69.5798H408.115V138.756H404.116V69.5798Z" fill="#CCCCCC"/>
<path d="M387.12 69.5798H391.119V138.756H387.12V69.5798Z" fill="#CCCCCC"/>
<path d="M370.124 69.5798H374.123V138.756H370.124V69.5798Z" fill="#CCCCCC"/>
<path d="M353.127 69.5798H357.126V138.756H353.127V69.5798Z" fill="#CCCCCC"/>
<path d="M336.131 69.5798H340.13V138.756H336.131V69.5798Z" fill="#CCCCCC"/>
<path d="M319.135 69.5798H323.134V138.756H319.135V69.5798Z" fill="#CCCCCC"/>
<path d="M302.138 69.5798H306.138V138.756H302.138V69.5798Z" fill="#CCCCCC"/>
<path d="M285.142 69.5798H289.141V138.756H285.142V69.5798Z" fill="#CCCCCC"/>
<path d="M268.146 69.5798H272.145V138.756H268.146V69.5798Z" fill="#CCCCCC"/>
<path d="M92.5038 0H237.832C239.906 0.00133567 241.893 0.832543 243.359 2.3111C244.825 3.78965 245.649 5.79463 245.651 7.88563V61.2907C245.649 63.3817 244.825 65.3867 243.359 66.8653C241.893 68.3438 239.906 69.175 237.832 69.1764H92.5038C90.4307 69.175 88.4429 68.3438 86.9769 66.8653C85.511 65.3867 84.6868 63.3817 84.6855 61.2907V7.88563C84.6868 5.79463 85.511 3.78965 86.9769 2.3111C88.4429 0.832543 90.4307 0.00133567 92.5038 0Z" fill="#E6E6E6"/>
<path d="M231.154 3.05176e-05H235.153V69.1765H231.154V3.05176e-05Z" fill="#CCCCCC"/>
<path d="M214.157 3.05176e-05H218.157V69.1765H214.157V3.05176e-05Z" fill="#CCCCCC"/>
<path d="M197.161 3.05176e-05H201.16V69.1765H197.161V3.05176e-05Z" fill="#CCCCCC"/>
<path d="M180.165 3.05176e-05H184.164V69.1765H180.165V3.05176e-05Z" fill="#CCCCCC"/>
<path d="M163.169 3.05176e-05H167.168V69.1765H163.169V3.05176e-05Z" fill="#CCCCCC"/>
<path d="M146.172 3.05176e-05H150.171V69.1765H146.172V3.05176e-05Z" fill="#CCCCCC"/>
<path d="M129.176 3.05176e-05H133.175V69.1765H129.176V3.05176e-05Z" fill="#CCCCCC"/>
<path d="M112.18 3.05176e-05H116.179V69.1765H112.18V3.05176e-05Z" fill="#CCCCCC"/>
<path d="M95.1832 3.05176e-05H99.1824V69.1765H95.1832V3.05176e-05Z" fill="#CCCCCC"/>
<path d="M135.495 74.6218H280.823C282.896 74.6232 284.884 75.4544 286.35 76.9329C287.816 78.4115 288.64 80.4165 288.641 82.5075V135.913C288.64 138.004 287.816 140.008 286.35 141.487C284.884 142.966 282.896 143.797 280.823 143.798H135.495C133.421 143.797 131.434 142.966 129.968 141.487C128.502 140.008 127.678 138.004 127.676 135.913V82.5075C127.678 80.4165 128.502 78.4115 129.968 76.9329C131.434 75.4544 133.421 74.6232 135.495 74.6218Z" fill="#6C63FF"/>
<path d="M274.144 74.6219H278.144V143.798H274.144V74.6219Z" fill="#3F3D56"/>
<path d="M257.148 74.6219H261.147V143.798H257.148V74.6219Z" fill="#3F3D56"/>
<path d="M240.152 74.6219H244.151V143.798H240.152V74.6219Z" fill="#3F3D56"/>
<path d="M223.156 74.6219H227.155V143.798H223.156V74.6219Z" fill="#3F3D56"/>
<path d="M206.159 74.6219H210.158V143.798H206.159V74.6219Z" fill="#3F3D56"/>
<path d="M189.163 74.6219H193.162V143.798H189.163V74.6219Z" fill="#3F3D56"/>
<path d="M172.167 74.6219H176.166V143.798H172.167V74.6219Z" fill="#3F3D56"/>
<path d="M155.17 74.6219H159.169V143.798H155.17V74.6219Z" fill="#3F3D56"/>
<path d="M138.174 74.6219H142.173V143.798H138.174V74.6219Z" fill="#3F3D56"/>
<path d="M318.455 74.6218H463.783C465.857 74.6232 467.844 75.4544 469.31 76.9329C470.776 78.4115 471.6 80.4165 471.602 82.5075V135.913C471.6 138.004 470.776 140.008 469.31 141.487C467.844 142.966 465.857 143.797 463.783 143.798H318.455C316.382 143.797 314.394 142.966 312.928 141.487C311.462 140.008 310.638 138.004 310.637 135.913V82.5075C310.638 80.4165 311.462 78.4115 312.928 76.9329C314.394 75.4544 316.382 74.6232 318.455 74.6218Z" fill="#6C63FF"/>
<path d="M457.105 74.6219H461.104V143.798H457.105V74.6219Z" fill="#3F3D56"/>
<path d="M440.109 74.6219H444.108V143.798H440.109V74.6219Z" fill="#3F3D56"/>
<path d="M423.112 74.6219H427.111V143.798H423.112V74.6219Z" fill="#3F3D56"/>
<path d="M406.116 74.6219H410.115V143.798H406.116V74.6219Z" fill="#3F3D56"/>
<path d="M389.12 74.6219H393.119V143.798H389.12V74.6219Z" fill="#3F3D56"/>
<path d="M372.123 74.6219H376.122V143.798H372.123V74.6219Z" fill="#3F3D56"/>
<path d="M355.127 74.6219H359.126V143.798H355.127V74.6219Z" fill="#3F3D56"/>
<path d="M338.131 74.6219H342.13V143.798H338.131V74.6219Z" fill="#3F3D56"/>
<path d="M321.134 74.6219H325.134V143.798H321.134V74.6219Z" fill="#3F3D56"/>
<path d="M263.467 5.04201H408.795C410.869 5.04334 412.856 5.87455 414.322 7.35311C415.788 8.83166 416.612 10.8366 416.614 12.9276V66.3327C416.612 68.4237 415.788 70.4287 414.322 71.9073C412.856 73.3858 410.869 74.2171 408.795 74.2184H263.467C261.394 74.2171 259.406 73.3858 257.94 71.9073C256.474 70.4287 255.65 68.4237 255.649 66.3327V12.9276C255.65 10.8366 256.474 8.83166 257.94 7.35311C259.406 5.87455 261.394 5.04334 263.467 5.04201Z" fill="#6C63FF"/>
<path d="M402.117 5.04204H406.116V74.2185H402.117V5.04204Z" fill="#3F3D56"/>
<path d="M385.12 5.04204H389.12V74.2185H385.12V5.04204Z" fill="#3F3D56"/>
<path d="M368.124 5.04204H372.123V74.2185H368.124V5.04204Z" fill="#3F3D56"/>
<path d="M351.128 5.04204H355.127V74.2185H351.128V5.04204Z" fill="#3F3D56"/>
<path d="M334.131 5.04204H338.131V74.2185H334.131V5.04204Z" fill="#3F3D56"/>
<path d="M317.135 5.04204H321.134V74.2185H317.135V5.04204Z" fill="#3F3D56"/>
<path d="M300.139 5.04204H304.138V74.2185H300.139V5.04204Z" fill="#3F3D56"/>
<path d="M283.142 5.04204H287.142V74.2185H283.142V5.04204Z" fill="#3F3D56"/>
<path d="M266.146 5.04204H270.145V74.2185H266.146V5.04204Z" fill="#3F3D56"/>
<path d="M513.413 74.6218H658.741C660.814 74.6232 662.802 75.4544 664.268 76.9329C665.734 78.4115 666.558 80.4165 666.56 82.5075V135.913C666.558 138.004 665.734 140.008 664.268 141.487C662.802 142.966 660.814 143.797 658.741 143.798H513.413C511.34 143.797 509.352 142.966 507.886 141.487C506.42 140.008 505.596 138.004 505.594 135.913V82.5075C505.596 80.4165 506.42 78.4115 507.886 76.9329C509.352 75.4544 511.34 74.6232 513.413 74.6218Z" fill="#6C63FF"/>
<path d="M652.063 74.6219H656.062V143.798H652.063V74.6219Z" fill="#3F3D56"/>
<path d="M635.066 74.6219H639.065V143.798H635.066V74.6219Z" fill="#3F3D56"/>
<path d="M618.07 74.6219H622.069V143.798H618.07V74.6219Z" fill="#3F3D56"/>
<path d="M601.074 74.6219H605.073V143.798H601.074V74.6219Z" fill="#3F3D56"/>
<path d="M584.077 74.6219H588.077V143.798H584.077V74.6219Z" fill="#3F3D56"/>
<path d="M567.081 74.6219H571.08V143.798H567.081V74.6219Z" fill="#3F3D56"/>
<path d="M550.085 74.6219H554.084V143.798H550.085V74.6219Z" fill="#3F3D56"/>
<path d="M533.088 74.6219H537.088V143.798H533.088V74.6219Z" fill="#3F3D56"/>
<path d="M516.092 74.6219H520.091V143.798H516.092V74.6219Z" fill="#3F3D56"/>
<path d="M477.421 5.04201H622.749C624.822 5.04334 626.81 5.87455 628.276 7.35311C629.742 8.83166 630.566 10.8366 630.567 12.9276V66.3327C630.566 68.4237 629.742 70.4287 628.276 71.9073C626.81 73.3858 624.822 74.2171 622.749 74.2184H477.421C475.347 74.2171 473.36 73.3858 471.894 71.9073C470.428 70.4287 469.604 68.4237 469.602 66.3327V12.9276C469.604 10.8366 470.428 8.83166 471.894 7.35311C473.36 5.87455 475.347 5.04334 477.421 5.04201Z" fill="#6C63FF"/>
<path d="M616.07 5.04204H620.07V74.2185H616.07V5.04204Z" fill="#3F3D56"/>
<path d="M599.074 5.04204H603.073V74.2185H599.074V5.04204Z" fill="#3F3D56"/>
<path d="M582.078 5.04204H586.077V74.2185H582.078V5.04204Z" fill="#3F3D56"/>
<path d="M565.082 5.04204H569.081V74.2185H565.082V5.04204Z" fill="#3F3D56"/>
<path d="M548.085 5.04204H552.084V74.2185H548.085V5.04204Z" fill="#3F3D56"/>
<path d="M531.089 5.04204H535.088V74.2185H531.089V5.04204Z" fill="#3F3D56"/>
<path d="M514.093 5.04204H518.092V74.2185H514.093V5.04204Z" fill="#3F3D56"/>
<path d="M497.096 5.04204H501.095V74.2185H497.096V5.04204Z" fill="#3F3D56"/>
<path d="M480.1 5.04204H484.099V74.2185H480.1V5.04204Z" fill="#3F3D56"/>
<path d="M7.54568 147.882C7.78624 147.011 8.09621 146.16 8.47254 145.338L26.3147 106.619C27.6239 103.778 29.7105 101.374 32.329 99.6892C34.9475 98.0044 37.9888 97.1092 41.0947 97.1092H114.279C117.385 97.1092 120.426 98.0044 123.045 99.6892C125.663 101.374 127.75 103.778 129.059 106.619L143.729 138.454H561.991L576.196 107.628C577.505 104.787 579.592 102.382 582.21 100.698C584.828 99.0128 587.87 98.1176 590.976 98.1176H664.16C666.969 98.119 669.73 98.8537 672.174 100.25L684.479 78.0877C685.291 76.6243 686.562 75.474 688.092 74.8169C689.622 74.1598 691.325 74.0331 692.934 74.4566C694.543 74.8801 695.968 75.8299 696.984 77.1572C698.001 78.4845 698.553 80.1145 698.553 81.7918V255.849C698.553 258.443 698.046 261.01 697.062 263.406C696.078 265.802 694.636 267.979 692.818 269.813C691 271.646 688.842 273.101 686.466 274.093C684.091 275.086 681.545 275.597 678.974 275.597H118.918C116.31 275.597 113.728 275.071 111.325 274.051C108.921 273.031 106.743 271.537 104.92 269.656L10.2421 172.008C7.16604 168.879 5.22647 164.796 4.73715 160.418C4.24782 156.04 5.23735 151.623 7.54568 147.882Z" fill="#3F3D56"/>
<path d="M106.082 135.933H115.277C117.239 135.93 119.12 135.143 120.507 133.744C121.895 132.345 122.675 130.448 122.677 128.469V118.186C122.675 116.208 121.895 114.31 120.507 112.911C119.12 111.512 117.239 110.725 115.277 110.723H106.082C104.12 110.725 102.239 111.512 100.852 112.911C99.465 114.31 98.6847 116.207 98.6824 118.186V128.469C98.6847 130.448 99.4651 132.345 100.852 133.744C102.24 135.143 104.12 135.93 106.082 135.933Z" fill="white"/>
<path d="M73.0894 135.933H82.2847C84.2465 135.93 86.1274 135.143 87.5146 133.744C88.9019 132.345 89.6822 130.448 89.6844 128.469V118.186C89.6822 116.208 88.9019 114.31 87.5146 112.911C86.1274 111.512 84.2465 110.725 82.2847 110.723H73.0894C71.1276 110.725 69.2467 111.512 67.8595 112.911C66.4722 114.31 65.6919 116.207 65.6896 118.186V128.469C65.6919 130.448 66.4723 132.345 67.8595 133.744C69.2468 135.143 71.1276 135.93 73.0894 135.933Z" fill="white"/>
<path d="M40.0966 135.933H49.2919C51.2537 135.93 53.1346 135.143 54.5218 133.744C55.9091 132.345 56.6894 130.448 56.6917 128.469V118.186C56.6894 116.208 55.9091 114.31 54.5218 112.911C53.1346 111.512 51.2537 110.725 49.2919 110.723H40.0966C38.1348 110.725 36.2539 111.512 34.8667 112.911C33.4794 114.31 32.6991 116.207 32.6968 118.186V128.469C32.6991 130.448 33.4795 132.345 34.8667 133.744C36.254 135.143 38.1348 135.93 40.0966 135.933Z" fill="white"/>
<path d="M655.963 136.941H665.159C667.12 136.939 669.001 136.152 670.388 134.753C671.776 133.353 672.556 131.456 672.558 129.478V119.195C672.556 117.216 671.776 115.319 670.388 113.92C669.001 112.52 667.12 111.733 665.159 111.731H655.963C654.001 111.733 652.121 112.52 650.733 113.92C649.346 115.319 648.566 117.216 648.563 119.195V129.478C648.566 131.456 649.346 133.353 650.733 134.753C652.121 136.152 654.001 136.939 655.963 136.941Z" fill="white"/>
<path d="M622.97 136.941H632.166C634.128 136.939 636.008 136.152 637.396 134.753C638.783 133.353 639.563 131.456 639.565 129.478V119.195C639.563 117.216 638.783 115.319 637.396 113.92C636.008 112.52 634.128 111.733 632.166 111.731H622.97C621.009 111.733 619.128 112.52 617.74 113.92C616.353 115.319 615.573 117.216 615.571 119.195V129.478C615.573 131.456 616.353 133.353 617.74 134.753C619.128 136.152 621.009 136.939 622.97 136.941Z" fill="white"/>
<path d="M589.977 136.941H599.173C601.135 136.939 603.015 136.152 604.403 134.753C605.79 133.353 606.57 131.456 606.573 129.478V119.195C606.57 117.216 605.79 115.319 604.403 113.92C603.015 112.52 601.135 111.733 599.173 111.731H589.977C588.016 111.733 586.135 112.52 584.748 113.92C583.36 115.319 582.58 117.216 582.578 119.195V129.478C582.58 131.456 583.36 133.353 584.748 134.753C586.135 136.152 588.016 136.939 589.977 136.941Z" fill="white"/>
<path d="M713.026 243.141C738.926 242.516 766.692 257.153 774.062 282.204L633.468 276.431C636.127 274.578 638.798 272.747 641.481 270.94C663.053 256.468 687.127 243.766 713.026 243.141Z" fill="#6C63FF"/>
<path d="M633.468 276.431C614.772 289.466 596.526 303.378 575.694 312.427C524.111 334.833 464.731 324.383 410.455 309.82C356.179 295.257 300.776 276.753 245.108 284.259C213.541 288.515 183.739 300.972 153.27 310.317C122.8 319.663 90.0157 325.921 59.274 317.53C28.5323 309.139 0.803752 282.533 -3.74845e-06 250.421C232.082 207.141 447.248 205.856 633.468 276.431Z" fill="#6C63FF"/>
</svg>
