<svg width="968" height="888" viewBox="0 0 968 888" fill="none" xmlns="http://www.w3.org/2000/svg">
<path d="M222.302 447C222.721 448.655 222.825 450.472 223.006 453.66C226.415 452.014 229.24 450.65 232.409 449.246C224.605 459.118 216.458 469.03 208 479.074C210.825 471.752 213.892 464.268 217.128 456.857C218.573 453.549 220.356 450.39 222.302 447Z" fill="#417447"/>
<path d="M254.996 718.377C246.022 711.086 237.049 703.795 227.961 695.934C227.566 695.184 227.287 695.003 227.007 694.822C227.007 694.822 226.978 694.888 226.928 694.625C226.578 694.197 226.278 694.034 225.978 693.87C218.838 686.849 211.229 680.237 204.675 672.706C195.958 662.687 187.361 652.423 179.986 641.412C169.919 626.382 161.051 610.55 151.367 594.867C146.742 585.127 142.419 575.583 138.491 565.496C152.561 549.61 166.798 534.721 179.722 518.768C189.079 507.217 196.692 494.255 205.39 481.85C206.109 481.125 206.521 480.471 206.946 479.85C206.959 479.882 206.889 479.882 207.201 479.75C215.659 469.706 223.806 459.794 232.122 449.592C238.181 441.34 244.307 433.538 249.914 425.38C263.482 405.638 276.099 385.33 285.793 363.325C288.526 357.121 291.766 351.141 294.85 345.459C294.008 359.212 293.09 372.564 292.121 386.156C292.07 386.395 292.203 386.867 292.13 387.209C292.106 388.014 292.153 388.476 292.124 389.398C292.107 397.518 292.169 405.178 292.156 413.305C292.152 422.498 292.223 431.224 292.213 440.261C292.188 440.991 292.243 441.411 292.218 442.297C292.165 449.921 291.887 457.097 292.303 464.232C292.729 471.534 293.209 478.933 294.767 486.049C298.739 504.198 304.733 521.628 315.901 536.833C322.083 545.25 328.246 553.683 334.55 562.009C337.419 565.797 340.253 569.73 343.734 572.908C349.559 578.227 355.665 583.306 362.07 587.905C368.665 592.639 375.759 596.679 382.836 601.318C387.349 603.674 391.659 605.734 396.114 607.908C396.258 608.022 396.624 608.022 396.84 608.313C399.028 609.332 400.999 610.061 403.137 610.897C403.303 611.003 403.698 610.999 403.905 611.284C405.398 611.969 406.684 612.37 408.168 612.857C408.367 612.943 408.799 612.956 408.909 613.189C409.326 613.509 409.634 613.597 410.254 613.786C410.986 614.008 411.407 614.128 412.081 614.502C418.227 616.575 424.12 618.396 429.706 620.438C426.626 621.065 423.866 621.627 421.079 621.846C414.967 622.325 408.782 622.216 402.731 623.078C373.902 627.184 347.239 637.402 322.545 652.673C299.775 666.755 279.961 684.304 263.288 705.275C260.09 709.298 257.738 713.993 254.996 718.377Z" fill="#2A4D77"/>
<path d="M205.083 481.922C196.692 494.255 189.079 507.217 179.722 518.768C166.798 534.721 152.561 549.61 138.52 565.102C134.839 555.578 131.047 546.042 128.293 536.215C116.079 492.627 112.828 448.078 116.32 403.153C120.47 349.771 137.1 300.139 164.346 254.084C169.255 245.787 174.68 237.796 180.246 229.141C182.906 225.377 185.042 222.022 187.495 218.916C192.597 212.455 197.603 205.887 203.134 199.804C210.094 192.148 217.501 184.894 224.798 177.55C227.476 174.854 230.391 172.394 233.437 170.033C234.805 171.44 235.934 172.64 237.037 174.189C237.086 174.994 237.161 175.452 237.176 176.292C239.141 183.705 241.165 190.736 243.145 198.129C243.177 198.97 243.254 199.448 243.238 200.303C243.797 203.059 244.447 205.438 245.062 208.17C245.115 208.989 245.204 209.453 245.22 210.317C245.446 212.506 245.738 214.297 246.047 216.085C247.415 223.984 248.787 231.883 250.1 240.181C250.184 241.363 250.326 242.147 250.343 243.312C250.517 245.396 250.815 247.1 251.061 249.256C251.138 252.115 251.267 254.522 251.279 257.351C251.496 260.44 251.83 263.106 252.099 266.186C252.106 267.71 252.178 268.82 252.154 270.386C251.745 283.585 251.463 296.328 251.108 309.068C250.924 315.667 250.61 322.263 250.259 329.21C250.158 330.042 250.155 330.524 249.863 331.25C249.532 333.284 249.489 335.073 249.323 337.262C249.179 338.773 249.158 339.884 248.853 341.254C247.489 348.634 246.409 355.753 245.234 363.225C245.161 364.061 245.184 364.544 244.904 365.258C242.845 373.225 241.109 380.967 239.326 388.698C237.621 396.095 235.868 403.482 233.95 411.183C233.535 412.647 233.307 413.802 232.839 415.116C232.53 415.812 232.459 416.35 232.249 417.25C231.108 420.732 230.107 423.851 228.817 427.174C227.504 430.546 226.479 433.714 225.313 437.22C224.756 438.952 224.341 440.346 223.72 441.867C223.255 442.22 223.13 442.505 222.959 443.152C222.459 444.808 222.139 446.161 221.502 447.676C219.557 451.066 217.773 454.225 216.329 457.533C213.093 464.944 210.025 472.428 206.889 479.882C206.889 479.882 206.959 479.882 206.637 479.906C205.904 480.594 205.494 481.258 205.083 481.922Z" fill="#099BB6"/>
<path d="M255.299 718.59C257.739 713.992 260.09 709.298 263.288 705.275C279.961 684.304 299.775 666.755 322.545 652.673C347.239 637.402 373.902 627.184 402.731 623.078C408.783 622.216 414.967 622.325 421.079 621.846C423.866 621.627 426.627 621.065 430.06 620.513C438.857 621.934 446.952 623.776 455.141 624.988C462.325 626.052 469.614 626.41 476.886 627.031C476.915 626.982 476.809 627.023 476.971 627.32C479.063 628.736 480.993 629.857 482.94 630.94C482.958 630.902 482.89 630.949 483.042 631.251C485.095 632.703 486.995 633.853 488.93 634.96C488.965 634.919 488.871 634.973 489.034 635.271C498.083 641.072 506.968 646.574 515.889 652.027C515.926 651.978 515.812 652.022 515.97 652.323C527.772 660.353 539.416 668.081 551.041 676.186C549.149 680.05 547.418 683.622 545.383 687.011C524.684 721.495 498.836 751.244 465.191 773.75C457.9 778.626 450.414 783.209 443.019 787.928C417.416 787.537 392.577 782.456 368.097 775.437C329.907 764.488 294.854 747.034 262.592 723.907C260.247 722.227 257.931 720.505 255.299 718.59Z" fill="#167EB3"/>
<path d="M561.086 98.9429C561.086 98.9429 561.55 98.9122 562.117 98.8109C564.778 97.7703 566.873 96.831 568.967 95.8917C570.036 95.8472 571.104 95.8026 572.814 95.7881C573.627 95.7958 573.799 95.7735 574.183 95.8454C574.395 95.9397 574.858 95.9377 575.1 96.2142C577.529 97.0258 579.715 97.5607 581.884 98.0321C581.865 97.9684 581.844 98.0992 582.078 98.3629C590.197 101.322 598.081 104.018 605.964 106.714C605.964 106.714 606.368 106.923 606.711 107.14C607.284 107.624 607.57 107.717 607.913 107.635C608.082 107.706 608.252 107.778 608.914 108.136C612.26 109.506 615.113 110.59 618.186 111.787C618.407 111.9 618.902 111.924 619.117 112.194C622.544 113.884 625.756 115.305 629.157 116.827C629.345 116.929 629.77 116.973 629.948 117.259C631.739 118.272 633.352 118.998 635.156 119.829C635.348 119.933 635.782 119.969 635.953 120.238C637.071 120.918 638.017 121.33 639.118 121.857C639.272 121.973 639.655 122.017 639.843 122.29C641.017 122.991 642.003 123.418 642.987 123.875C642.986 123.904 643.031 123.868 643.184 124.117C643.877 124.558 644.417 124.748 644.962 124.916C644.966 124.893 644.93 124.923 645.092 125.211C646.824 126.3 648.394 127.1 649.967 127.898C649.969 127.896 649.967 127.901 650.049 128.105C650.321 128.589 650.579 128.686 651.127 128.732C651.517 128.889 651.686 128.916 652.022 129.233C653.772 130.332 655.353 131.142 656.952 131.926C656.968 131.9 656.912 131.925 657.004 132.143C657.298 132.655 657.576 132.769 658.116 132.816C658.305 132.928 658.742 132.966 658.871 133.205C659.324 133.583 659.648 133.722 659.972 133.884C659.971 133.906 660.013 133.889 660.088 134.085C660.338 134.555 660.583 134.655 661.104 134.719C661.31 134.856 661.795 134.949 661.906 135.192C662.34 135.56 662.663 135.686 662.992 135.847C662.999 135.883 663.067 135.855 663.198 136.117C663.863 136.591 664.398 136.804 664.935 136.977C664.938 136.938 664.86 136.947 664.948 137.197C665.349 137.578 665.663 137.71 666.125 138.086C666.791 138.538 667.309 138.746 667.983 139.234C669.067 140.001 669.994 140.488 670.943 140.943C670.964 140.912 670.891 140.933 670.988 141.167C671.383 141.535 671.681 141.669 672.03 142.02C672.081 142.237 672.145 142.679 671.785 142.787C666.403 146.007 661.747 148.216 655.415 144.872C647.214 140.542 639.687 142.638 633.166 149.432C630.964 151.727 629.785 158.936 631.22 161.329C635.281 168.102 634.028 170.349 626.302 172.089C623.963 172.616 621.163 174.835 620.239 176.992C619.019 179.84 619.889 183.11 622.954 185.32C628.543 189.349 628.391 189.381 622.35 192.778C620.902 193.592 619.763 195.575 619.306 197.246C619.104 197.983 620.781 199.867 621.918 200.218C625.358 201.282 625.221 203.214 624.133 205.941C623.105 208.52 622.036 209.742 618.685 209.499C614.216 209.175 609.633 210.15 605.125 210.756C602.455 211.115 601.14 212.931 602.445 215.383C603.575 217.506 605.037 219.364 608.412 218.327C611.214 217.467 614.414 217.907 617.438 217.772C614.7 221.207 610.954 222.885 609.479 225.737C607.962 228.671 608.659 232.75 608.387 236.328C608.077 237.622 606.438 238.298 604.845 239.07C600.746 241.06 595.662 241.648 593.596 246.601C592.759 248.605 592.224 250.736 591.551 252.809C593.77 253.179 595.98 253.621 598.211 253.883C599.165 253.995 600.163 253.729 601.277 253.622C601.789 252.053 602.272 250.574 602.855 248.79C605.124 249.477 607.047 250.061 608.979 250.646C607.658 254.557 601.59 256.691 605.902 261.132C608.456 263.762 611.984 265.446 615.207 267.645C614.951 267.828 614.282 268.604 613.457 268.846C609.987 269.863 608.493 272.157 609.126 275.613C609.752 279.031 612.304 279.846 615.457 279.927C623.389 280.132 623.881 280.928 624.125 288.546C624.187 290.51 625.645 293.129 627.271 294.121C628.556 294.906 631.101 293.743 633.052 293.298C637.628 292.255 642.164 290.455 646.755 290.323C648.882 290.262 651.101 293.378 653.021 295.303C648.165 297.765 643.453 299.768 638.995 302.232C629.649 307.397 620.438 312.804 610.885 318.01C609.388 316.551 608.113 315.245 606.978 313.828C597.767 302.328 587.15 292.345 574.84 283.917C574.711 283.793 574.354 283.762 574.14 283.486C571.663 281.697 569.399 280.184 567.099 278.708C567.062 278.745 567.154 278.793 567.068 278.53C566.647 278.133 566.314 277.999 565.976 277.882C565.972 277.9 566.001 277.877 565.842 277.619C565.125 277.156 564.568 276.951 564.015 276.787C564.02 276.829 564.097 276.798 563.925 276.506C561.167 274.751 558.581 273.288 555.79 271.528C548.714 268.168 541.842 265.104 534.627 261.947C532.564 261.175 530.843 260.496 528.92 259.51C526.844 258.744 524.972 258.286 522.861 257.474C520.666 256.833 518.71 256.546 516.674 256.256C516.594 256.254 516.433 256.26 516.157 256.07C513.563 254.966 511.245 254.053 508.7 253.06C508.472 252.982 507.997 253.056 507.689 252.946C506.739 252.814 506.096 252.792 505.141 252.508C501.217 251.693 497.606 251.138 493.601 250.39C491.456 250.109 489.705 250.022 487.65 249.737C485.891 249.486 484.435 249.433 482.527 249.246C469.694 249.771 457.312 250.43 444.52 251.045C437.4 252.64 430.689 254.279 423.525 255.926C422.232 256.229 421.393 256.523 420.541 256.728C420.53 256.638 420.419 256.9 420.045 256.933C419.437 257.053 419.203 257.141 418.688 257.198C417.945 257.452 417.483 257.737 416.687 258.011C415.557 258.368 414.761 258.738 413.621 259.088C411.858 259.719 410.439 260.369 408.718 260.999C407.935 261.294 407.454 261.608 406.621 261.917C404.855 262.619 403.441 263.327 401.728 264.036C400.946 264.361 400.464 264.686 399.694 264.996C398.955 265.3 398.505 265.618 398.026 265.919C397.996 265.9 397.983 265.968 397.693 265.966C396.956 266.289 396.509 266.613 396.031 266.92C396.001 266.903 395.982 266.971 395.695 266.965C394.969 267.29 394.531 267.621 394.056 267.933C394.02 267.915 393.993 267.992 393.724 268.007C393.232 268.276 393.01 268.531 392.832 268.76C392.877 268.735 392.803 268.663 392.461 268.71C390.411 269.807 388.703 270.857 386.983 271.9C386.971 271.892 386.972 271.921 386.686 271.934C385.965 272.282 385.529 272.616 385.06 272.934C385.025 272.918 385.007 272.992 384.696 273.014C383.589 273.657 382.793 274.28 381.719 274.955C381.289 275.116 381.135 275.226 380.685 275.411C378.907 276.617 377.427 277.747 375.957 278.887C375.968 278.898 375.956 278.871 375.681 278.934C375.157 279.268 374.909 279.539 374.468 279.836C374.275 279.861 373.972 280.105 373.645 280.167C369.572 283.13 365.827 286.031 361.827 289.003C361.371 289.348 361.169 289.623 360.66 289.995C359.461 290.989 358.568 291.886 357.335 292.839C353.146 296.695 349.297 300.496 345.448 304.298C344.987 303.947 344.526 303.596 344.066 303.246C344.43 302.16 344.795 301.074 345.42 299.754C348.84 292.358 352 285.197 355.128 278.006C355.096 277.976 355.059 278.056 355.303 277.954C355.651 277.527 355.756 277.202 355.906 276.861C355.952 276.844 355.91 276.756 356.19 276.573C361.072 268.887 365.418 261.212 370.337 253.923C377.386 243.475 384.854 233.31 392.109 222.996C392.076 222.969 392.043 223.049 392.305 222.967C392.734 222.567 392.901 222.25 393.031 221.927C392.993 221.921 393.01 221.995 393.255 221.901C393.659 221.506 393.819 221.205 393.974 220.9C393.969 220.896 393.978 220.905 394.208 220.817C394.741 220.521 394.871 220.234 394.887 219.857C394.942 219.845 394.905 219.737 395.165 219.607C395.713 218.976 396.002 218.476 396.486 217.889C396.906 217.597 397.015 217.341 397.251 216.927C397.661 216.517 397.831 216.217 397.984 215.907C397.968 215.898 397.996 215.924 398.298 215.786C400.406 213.41 402.211 211.172 403.996 208.914C403.974 208.894 403.995 208.948 404.241 208.867C404.645 208.491 404.803 208.196 405.199 207.793C405.609 207.389 405.782 207.094 406.183 206.736C406.71 206.487 406.849 206.218 406.881 205.858C406.935 205.85 406.905 205.746 407.183 205.618C408.025 204.667 408.588 203.844 409.112 202.991C409.072 202.962 409.035 203.053 409.316 202.971C409.837 202.589 410.077 202.29 410.552 201.875C411.205 201.217 411.623 200.673 412.29 200.006C412.715 199.566 412.891 199.249 413.029 198.926C412.992 198.92 413.01 198.994 413.264 198.909C413.701 198.528 413.884 198.232 414.029 197.927C413.992 197.919 414.01 197.993 414.263 197.907C414.695 197.524 414.875 197.227 415.02 196.92C414.984 196.911 415.004 196.982 415.255 196.895C415.683 196.514 415.861 196.219 416.006 195.914C415.975 195.903 415.999 195.965 416.245 195.877C416.663 195.496 416.835 195.204 416.988 194.904C416.967 194.895 416.986 194.935 417.231 194.85C417.658 194.482 417.841 194.2 417.997 193.908C417.97 193.897 417.992 193.95 418.238 193.865C418.658 193.491 418.833 193.202 418.988 192.904C418.968 192.895 418.986 192.935 419.23 192.852C419.649 192.483 419.823 192.197 419.983 191.903C419.968 191.895 419.985 191.925 420.226 191.842C420.633 191.472 420.799 191.186 420.967 190.898C420.969 190.897 420.972 190.893 421.211 190.812C421.621 190.455 421.792 190.177 421.967 189.898C421.97 189.898 421.972 189.891 422.211 189.813C422.614 189.454 422.776 189.173 422.957 188.895C422.974 188.898 422.964 188.864 423.194 188.783C423.718 188.508 423.877 188.236 423.933 187.889C423.966 187.894 423.956 187.829 424.185 187.761C424.709 187.501 424.858 187.23 425.109 186.778C425.555 186.392 425.756 186.108 426.191 185.76C426.726 185.509 426.883 185.239 427.141 184.781C427.577 184.385 427.767 184.092 428.186 183.738C428.705 183.489 428.86 183.223 428.915 182.884C428.95 182.889 428.938 182.819 429.175 182.753C429.713 182.498 429.878 182.226 429.937 181.88C429.968 181.888 429.956 181.825 430.187 181.757C430.719 181.505 430.877 181.238 431.174 180.778C431.958 180.056 432.459 179.444 433.197 178.763C433.746 178.52 433.924 178.254 434.209 177.829C434.753 177.571 434.932 177.301 435.237 176.869C435.675 176.504 435.861 176.217 436.013 175.919C435.979 175.907 436.005 175.975 436.256 175.89C436.691 175.515 436.876 175.224 437.024 174.924C436.988 174.915 437.006 174.987 437.265 174.908C437.714 174.536 437.904 174.243 438.054 173.946C438.014 173.942 438.024 174.022 438.285 173.94C438.732 173.557 438.918 173.256 439.064 172.964C439.023 172.974 439.067 173.045 439.371 172.961C440.224 172.258 440.771 171.638 441.608 170.947C442.578 170.183 443.259 169.49 444.184 168.751C444.744 168.521 444.905 168.245 445.149 167.796C445.583 167.45 445.781 167.188 446.236 166.862C446.68 166.508 446.867 166.219 447.018 165.92C446.983 165.911 447.003 165.981 447.257 165.897C447.707 165.526 447.901 165.238 448.053 164.957C448.012 164.963 448.059 165.032 448.368 164.947C449.769 163.873 450.863 162.883 451.963 161.896C451.97 161.898 451.97 161.884 452.221 161.821C452.665 161.482 452.857 161.206 453.015 160.919C452.981 160.907 453.002 160.976 453.258 160.896C453.705 160.525 453.895 160.235 454.044 159.949C454.003 159.952 454.048 160.022 454.35 159.948C455.41 159.209 456.168 158.543 456.943 157.891C456.96 157.904 456.954 157.862 457.246 157.789C458.07 157.132 458.602 156.547 459.432 155.902C460.477 155.192 461.223 154.543 462.265 153.828C463.284 153.11 464.008 152.458 464.814 151.826C464.896 151.845 464.936 151.681 465.171 151.654C465.712 151.477 465.905 151.238 465.978 150.902C465.969 150.896 465.979 150.913 466.251 150.858C466.751 150.524 466.979 150.244 467.481 149.921C468.157 149.521 468.56 149.163 469.21 148.764C469.643 148.456 469.828 148.189 469.99 147.911C469.966 147.901 470.001 147.939 470.307 147.879C471.393 147.177 472.173 146.535 473.256 145.817C474.049 145.361 474.54 144.981 475.239 144.584C475.699 144.406 475.843 144.177 475.912 143.889C475.947 143.898 475.958 143.828 476.217 143.791C476.676 143.484 476.876 143.214 477.034 142.944C476.993 142.944 477.04 143.012 477.37 142.958C479.088 141.889 480.477 140.874 481.897 139.876C481.928 139.894 481.942 139.824 482.207 139.794C482.687 139.495 482.901 139.226 483.353 138.934C483.59 138.911 484.011 138.685 484.244 138.672C484.768 138.49 484.937 138.238 484.977 137.901C484.969 137.896 484.98 137.911 485.295 137.873C486.423 137.208 487.235 136.581 488.008 135.934C487.968 135.915 488.024 135.984 488.358 135.93C490.174 134.905 491.656 133.934 493.138 132.963C493.138 132.963 493.617 132.887 494.038 132.742C494.725 132.432 494.879 132.195 494.922 131.886C494.922 131.886 494.964 131.905 495.297 131.854C497.105 130.854 498.579 129.907 500.054 128.959C500.054 128.959 499.987 128.915 500.291 128.924C501.05 128.587 501.505 128.241 501.96 127.894C501.96 127.894 501.969 127.897 502.318 127.86C504.779 126.52 506.892 125.218 509.005 123.915C509.185 123.89 509.365 123.865 510.009 123.718C510.751 123.448 510.923 123.22 510.989 122.912C510.989 122.912 510.969 122.897 511.276 122.889C512.039 122.538 512.495 122.195 512.95 121.852C513.497 121.66 514.044 121.468 515.126 121.01C524.766 116.132 533.87 111.52 542.972 106.902C542.969 106.896 542.979 106.905 543.318 106.892C544.81 106.237 545.962 105.596 547.114 104.954C547.114 104.954 547.573 104.922 548.113 104.792C550.446 103.747 552.238 102.834 554.029 101.92C554.029 101.92 554.521 101.901 555.09 101.802C557.468 100.783 559.277 99.863 561.086 98.9429Z" fill="#89B350"/>
<path d="M286.234 130.996C286.234 130.996 286.653 130.97 287.074 130.839C287.694 130.451 287.893 130.194 288.091 129.937C288.607 129.734 289.123 129.531 290.122 129.064C291.479 128.197 292.352 127.595 293.226 126.992C293.226 126.992 293.638 126.982 294.081 126.873C294.747 126.5 294.97 126.236 295.193 125.972C295.193 125.972 295.626 125.947 296.062 125.838C296.699 125.473 296.9 125.219 297.1 124.964C297.1 124.964 297.015 124.944 297.358 124.938C298.798 124.258 299.896 123.585 300.993 122.913C300.993 122.913 300.971 122.894 301.337 122.871C306.82 120.217 311.937 117.587 317.053 114.957C317.053 114.957 316.978 114.907 317.362 114.923C319.83 113.932 321.915 112.926 324.001 111.919C324.001 111.919 323.973 111.894 324.359 111.894C331.808 109.189 338.781 106.211 345.954 103.839C358.564 99.6709 371.297 95.8742 383.979 91.9218C384.426 91.8984 384.873 91.8749 386.035 91.7713C390.852 90.4373 394.955 89.1835 399.058 87.9297C403.752 87.2934 408.447 86.6571 413.813 86.0584C414.644 86.0125 414.804 85.929 414.963 85.8454C415.42 85.8563 415.876 85.8672 417.003 85.8533C418.264 85.5678 418.855 85.307 419.446 85.0462C419.796 85.1037 420.145 85.1612 421.177 85.107C426.897 84.4712 431.935 83.9472 436.973 83.4232C438.729 83.2717 440.484 83.1201 443.076 82.9444C450.945 82.6134 457.978 82.3067 465.012 82C467.047 82.0642 469.082 82.1283 471.963 82.1945C474.826 82.1834 476.843 82.1704 479.224 82.3258C483.114 82.5311 486.64 82.568 490.415 82.6544C490.898 82.4951 491.131 82.2862 491.631 82.3931C494.593 82.7845 497.288 82.8601 499.983 82.9357C505.081 83.4554 510.179 83.9752 515.277 84.495C515.396 84.9714 515.516 85.4478 515.636 85.9243C511.331 87.9146 507.027 89.905 501.98 91.9014C476.694 102.934 454.046 117.125 433.359 134.213C398.377 163.108 368.848 197.028 343.643 234.685C332.422 251.45 322.092 268.775 314.606 287.928C311.897 294.023 309.501 299.96 307.006 306.098C306.906 306.298 306.922 306.746 306.702 306.854C306.206 307.206 306.115 307.504 306.071 308.25C302.213 320.78 298.493 332.919 294.773 345.059C291.766 351.141 288.526 357.121 285.793 363.325C276.099 385.33 263.482 405.638 249.914 425.38C244.307 433.538 238.181 441.34 231.779 449.633C228.441 451.326 225.616 452.69 222.207 454.336C222.026 451.148 221.922 449.331 221.819 447.513C222.139 446.161 222.459 444.808 223.153 443.022C223.76 442.353 223.893 442.07 223.926 441.741C224.341 440.346 224.756 438.952 225.605 437.125C227.572 433.612 231.05 431.146 229.107 426.97C230.107 423.851 231.108 420.732 232.486 417.199C232.935 416.176 233.006 415.566 233.078 414.956C233.307 413.802 233.535 412.647 234.291 411.109C235.554 408.949 236.524 407.233 236.989 405.389C239.895 393.86 242.757 382.318 245.445 370.737C245.861 368.949 245.31 366.936 245.207 365.028C245.184 364.544 245.161 364.061 245.558 363.123C247.03 355.444 248.083 348.219 249.137 340.994C249.158 339.884 249.179 338.773 249.622 337.153C250.08 334.765 250.116 332.885 250.151 331.006C250.155 330.524 250.159 330.042 250.6 329.086C251.317 328.22 251.826 327.837 251.843 327.434C252.576 309.465 253.3 291.495 253.881 273.52C253.919 272.342 252.82 271.127 252.25 269.929C252.178 268.82 252.106 267.71 252.341 265.9C252.231 262.443 251.813 259.686 251.396 256.929C251.267 254.522 251.138 252.115 251.302 249.003C251.219 246.509 250.843 244.72 250.467 242.931C250.326 242.147 250.184 241.363 250.343 239.897C249.468 230.134 248.328 221.046 247.048 211.979C246.942 211.224 245.9 210.601 245.292 209.917C245.204 209.453 245.115 208.989 245.308 207.922C244.836 204.855 244.083 202.39 243.33 199.926C243.254 199.448 243.177 198.97 243.375 197.867C242.308 190.649 241.023 184.042 239.538 177.48C239.388 176.817 238.033 176.426 237.236 175.909C237.161 175.452 237.086 174.994 237.291 173.928C237.441 170.857 237.311 168.395 237.181 165.933C239.574 163.919 241.967 161.906 244.909 159.752C245.739 159.454 245.917 159.218 245.991 158.905C246.355 158.932 246.645 158.799 247.251 158.178C248.771 156.879 249.902 155.909 251.032 154.938C251.032 154.938 250.975 154.896 251.288 154.862C252.345 154.165 253.09 153.502 253.835 152.839C253.835 152.839 253.917 152.873 254.18 152.799C254.63 152.455 254.817 152.185 255.004 151.914C255.004 151.914 254.971 151.893 255.242 151.854C255.721 151.536 255.928 151.257 256.135 150.978C256.135 150.978 256.047 150.978 256.367 150.946C257.473 150.258 258.26 149.602 259.046 148.946C259.046 148.946 258.981 148.899 259.312 148.863C260.785 147.871 261.926 146.917 263.068 145.963C263.068 145.963 262.986 145.914 263.336 145.867C265.835 144.221 267.984 142.623 270.133 141.025C270.133 141.025 270.019 140.98 270.364 140.962C271.51 140.297 272.311 139.65 273.112 139.003C273.112 139.003 273.008 138.954 273.381 138.936C276.218 137.266 278.681 135.615 281.145 133.964C281.145 133.964 281.606 133.91 282.041 133.79C282.773 133.505 282.956 133.256 283.027 132.924C283.027 132.924 282.979 132.891 283.31 132.871C284.504 132.233 285.369 131.614 286.234 130.996Z" fill="#4D8244"/>
<path d="M747.73 209.548C748.652 211.213 749.575 212.878 750.817 214.961C751.412 215.559 751.686 215.738 751.961 215.918C751.961 215.918 751.97 215.896 752.012 216.202C752.452 216.955 752.85 217.403 753.248 217.85C753.657 218.459 754.066 219.069 754.795 220.036C755.391 220.585 755.666 220.775 755.941 220.966C755.941 220.966 755.966 220.902 756.005 221.192C756.31 221.733 756.575 221.984 756.887 222.498C757.284 223.138 757.633 223.514 758.047 224.206C759.049 225.669 759.987 226.816 760.925 227.963C760.925 227.963 760.964 227.9 760.994 228.22C761.69 229.288 762.357 230.036 763.023 230.784C763.023 230.784 762.992 230.854 763.062 231.116C763.404 231.569 763.676 231.759 763.948 231.95C763.948 231.95 763.968 231.896 763.995 232.22C764.676 233.317 765.331 234.091 765.985 234.864C765.985 234.864 765.965 234.894 766.036 235.219C767.414 237.286 768.721 239.029 770.028 240.771C770.028 240.771 769.998 240.85 770.069 241.117C770.405 241.593 770.671 241.801 770.937 242.009C771.16 242.524 771.382 243.04 771.865 243.981C772.392 244.619 772.659 244.831 772.926 245.043C773.134 245.557 773.343 246.071 773.831 247.06C775.079 248.956 776.047 250.378 777.015 251.8C777.015 251.8 776.977 251.864 777.065 252.21C779.085 255.679 781.017 258.802 782.95 261.924C782.95 261.924 782.97 261.897 783.005 262.249C783.671 264.087 784.302 265.573 784.634 267.312C770.944 268.704 757.475 269.28 744.175 271.092C713.478 275.274 683.582 282.751 654.818 294.61C654.465 294.615 654.215 294.758 653.797 294.959C653.63 295.018 653.279 295.054 653.279 295.054C651.101 293.379 648.883 290.262 646.755 290.323C642.164 290.455 637.628 292.255 633.052 293.298C631.101 293.743 628.556 294.906 627.271 294.121C625.645 293.129 624.187 290.51 624.125 288.546C623.881 280.928 623.389 280.132 615.458 279.927C612.304 279.846 609.752 279.031 609.126 275.613C608.493 272.157 609.987 269.863 613.457 268.846C614.282 268.604 614.951 267.828 615.207 267.645C611.984 265.446 608.456 263.762 605.902 261.132C601.59 256.691 607.658 254.557 608.979 250.647C607.047 250.061 605.124 249.478 602.855 248.79C602.273 250.574 601.789 252.053 601.277 253.622C600.163 253.729 599.165 253.995 598.211 253.883C595.98 253.621 593.77 253.179 591.551 252.809C592.224 250.736 592.76 248.605 593.596 246.601C595.663 241.649 600.746 241.06 604.845 239.07C606.438 238.298 608.077 237.622 608.388 236.328C608.659 232.75 607.962 228.671 609.479 225.737C610.954 222.885 614.7 221.207 617.438 217.772C614.414 217.907 611.214 217.467 608.412 218.327C605.037 219.364 603.575 217.506 602.445 215.383C601.14 212.931 602.455 211.115 605.125 210.756C609.633 210.15 614.216 209.175 618.685 209.499C622.036 209.742 623.105 208.52 624.133 205.941C625.221 203.214 625.358 201.282 621.918 200.218C620.781 199.867 619.104 197.983 619.306 197.246C619.763 195.575 620.902 193.592 622.35 192.778C628.391 189.381 628.543 189.349 622.955 185.32C619.889 183.11 619.02 179.84 620.24 176.992C621.163 174.835 623.963 172.616 626.302 172.089C634.028 170.349 635.281 168.102 631.22 161.329C629.785 158.936 630.964 151.727 633.166 149.432C639.687 142.638 647.214 140.542 655.415 144.872C661.747 148.216 666.403 146.007 671.773 142.801C672.122 142.706 672.102 142.703 672.105 143.061C673.043 143.932 673.978 144.444 674.991 145.289C676.026 146.065 676.983 146.509 678.061 147.155C678.382 147.609 678.631 147.795 679.006 148.269C680.121 149.016 681.159 149.409 682.483 149.966C684.824 151.416 686.878 152.701 688.932 153.987C689.133 154.244 689.333 154.501 689.901 155.105C691.145 155.971 692.023 156.49 692.901 157.009C692.901 157.009 692.944 156.939 692.996 157.188C693.353 157.597 693.657 157.756 693.96 157.916C694.17 158.185 694.379 158.454 694.951 159.079C696.176 159.961 697.038 160.487 697.9 161.013C697.9 161.013 697.942 160.943 697.987 161.196C698.343 161.597 698.655 161.745 698.967 161.893C698.967 161.893 698.969 161.896 699.103 162.191C700.457 163.328 701.676 164.17 702.895 165.012C702.895 165.012 702.943 164.944 702.987 165.198C703.333 165.622 703.635 165.793 703.937 165.964C703.937 165.964 703.963 165.901 704.02 166.158C704.375 166.57 704.671 166.725 704.968 166.879C704.968 166.879 704.967 166.9 705.058 167.131C705.348 167.668 705.629 167.811 705.994 167.791C705.994 167.791 706.002 167.868 706.164 168.152C707.515 169.295 708.705 170.154 709.894 171.014C709.894 171.014 709.941 170.946 709.985 171.199C710.336 171.623 710.642 171.793 710.949 171.963C710.99 172.312 711.159 172.581 711.776 173.081C712.39 173.544 712.684 173.695 712.977 173.845C713.511 174.449 714.045 175.053 714.993 176.049C717.569 178.299 719.73 180.158 721.892 182.017C721.892 182.017 721.936 181.947 721.981 182.203C722.324 182.643 722.623 182.827 722.922 183.011C722.922 183.011 722.933 182.933 722.978 183.195C723.326 183.633 723.63 183.81 723.933 183.987C723.933 183.987 723.951 183.915 723.994 184.183C724.329 184.642 724.621 184.834 724.913 185.025C724.913 185.025 724.922 184.943 724.964 185.209C725.31 185.654 725.616 185.834 725.922 186.013C725.922 186.013 725.917 185.93 725.969 186.246C726.636 187.057 727.252 187.553 727.868 188.048C727.868 188.048 727.915 187.949 727.965 188.292C730.018 190.678 732.021 192.721 734.025 194.764C734.025 194.764 734.005 194.843 734.129 195.144C735.149 196.281 736.046 197.117 736.944 197.953C736.992 198.297 737.161 198.565 737.756 199.093C738.354 199.619 738.646 199.808 738.938 199.997C739.255 200.478 739.571 200.96 740.139 201.955C741.251 203.227 742.11 203.986 743.232 204.871C743.95 205.343 744.406 205.688 744.862 206.033C744.862 206.033 744.938 205.917 744.991 206.274C745.939 207.603 746.834 208.575 747.73 209.548Z" fill="#83AF4E"/>
<path d="M443.389 788.027C450.414 783.209 457.9 778.626 465.191 773.75C498.836 751.244 524.684 721.495 545.383 687.011C547.418 683.622 549.149 680.05 551.355 676.325C557.128 679.557 562.567 683.027 568.116 686.601C568.226 686.705 568.522 686.767 568.715 687.004C572.374 689.518 575.871 691.75 579.302 694.079C587.929 699.937 596.526 705.839 604.816 711.944C604.168 712.74 603.686 713.277 603.532 713.896C600.017 728.042 598.904 742.271 601.277 756.783C601.891 760.539 604.542 764.613 600.929 768.499C598.498 768.885 596.395 769.143 594.352 769.648C576.722 774.015 559.189 778.828 541.447 782.677C530.422 785.068 519.084 786.018 507.887 787.615C499.692 788.373 491.508 789.544 483.298 789.771C475.26 789.993 467.194 789.277 459.142 788.926C454.012 788.703 448.887 788.396 443.389 788.027Z" fill="#2A4D77"/>
<path d="M686.958 762.801C686.958 762.801 687.208 763.046 687.592 763.335C699.898 769.481 711.82 775.337 723.742 781.194C723.742 781.194 723.9 781.105 724.01 781.39C725.359 782.148 726.598 782.622 727.838 783.096C727.838 783.096 727.91 782.996 728.05 783.313C735.449 786.701 742.709 789.772 749.97 792.842C749.97 792.842 750.178 793.077 750.493 793.318C751.19 793.632 751.573 793.706 751.956 793.779C751.956 793.779 752.316 793.989 752.739 794.289C758.429 796.694 763.695 798.8 768.825 801.217C768.778 803.02 768.867 804.511 768.504 806.128C762.691 806.263 757.331 806.273 751.972 806.283C749.599 806.174 747.227 806.065 744.002 805.945C741.756 805.963 740.362 805.993 738.969 806.023C717.598 804.522 696.544 800.998 675.725 796.019C654.675 790.985 634.099 784.549 614.295 774.516C614.485 773.546 614.9 772.818 615.461 772.678C618.413 771.94 621.581 771.783 624.347 770.637C637.235 765.299 646.769 755.861 655.279 744.93C656.723 745.581 657.847 746.179 658.971 746.778C658.971 746.778 659.192 747.034 659.549 747.319C660.896 748.083 661.886 748.564 662.876 749.045C662.876 749.045 662.927 748.947 663.035 749.281C670.047 753.434 676.951 757.254 683.854 761.074C683.854 761.074 683.877 760.984 683.939 761.23C684.318 761.561 684.634 761.647 684.951 761.733C684.951 761.733 685.284 761.976 685.608 762.237C686.274 762.598 686.616 762.699 686.958 762.801Z" fill="#316542"/>
<path d="M654.958 744.877C646.769 755.861 637.235 765.299 624.347 770.637C621.581 771.783 618.413 771.94 615.461 772.678C614.9 772.818 614.486 773.546 613.983 774.333C610.597 773.366 607.232 772.07 603.426 770.489C602.418 769.632 601.851 769.059 601.284 768.486C604.542 764.613 601.891 760.539 601.277 756.783C598.905 742.271 600.017 728.042 603.532 713.896C603.686 713.277 604.168 712.74 605.135 712.056C607.472 712.982 609.171 714.015 610.87 715.049C610.87 715.049 610.932 714.949 611.035 715.278C616.391 719.075 621.644 722.544 626.897 726.013C626.897 726.013 626.947 725.922 627.058 726.251C632.084 729.717 636.998 732.855 641.913 735.994C641.913 735.994 641.957 735.914 642.048 736.229C643.078 737.009 644.016 737.473 644.955 737.938C645.347 738.274 645.74 738.611 646.579 739.273C648.621 740.44 650.216 741.282 651.811 742.123C651.811 742.123 651.9 742.022 651.986 742.323C653.003 743.101 653.934 743.579 654.864 744.056C654.864 744.056 654.905 743.956 654.888 744.2C654.871 744.444 654.958 744.877 654.958 744.877Z" fill="#4D8244"/>
<path d="M653.021 295.304C653.279 295.055 653.63 295.018 654.04 294.945C654.451 294.873 654.921 294.748 654.921 294.748C683.582 282.751 713.478 275.274 744.174 271.092C757.475 269.28 770.944 268.704 784.849 267.403C785.362 267.24 785.814 267.352 785.814 267.352C791.319 278.556 797.392 289.524 802.17 301.029C807.002 312.664 810.775 324.76 814.585 336.789C817.159 344.917 819.019 353.274 821.124 361.547C821.33 362.354 821.014 363.294 820.612 364.561C819.844 365.175 819.28 365.293 818.983 365.64C806.281 380.524 793.501 395.343 780.943 410.348C756.987 438.973 734.374 468.604 713.457 499.554C694.736 527.256 676.993 555.47 664.255 586.505C661.003 594.427 658.711 602.743 655.661 610.839C654.59 610.443 653.834 610.085 653.05 609.776C653.021 609.826 653.126 609.779 652.954 609.461C651.583 607.325 649.606 605.624 649.311 603.67C647.363 590.777 645.818 577.824 644.005 564.91C643.848 563.797 642.699 562.825 642.176 561.403C642.678 558.104 643.302 555.188 643.306 552.272C643.343 523.796 643.301 495.319 643.231 466.842C643.194 451.861 643.055 436.88 643.057 421.488C643.087 419.684 643.023 418.289 643.049 416.434C643.531 399.835 641.394 384.079 636 368.845C635.976 368.879 636.055 368.851 636.062 368.516C635.757 367.395 635.446 366.608 635.107 365.47C634.673 364.039 634.265 362.958 633.896 361.563C633.642 360.712 633.351 360.175 633.049 359.266C627.99 348.716 623.053 338.481 617.833 328.393C615.965 324.783 613.412 321.529 611.171 318.112C620.438 312.804 629.649 307.397 638.995 302.232C643.453 299.768 648.165 297.765 653.021 295.304Z" fill="#2F6441"/>
<path d="M655.977 610.877C658.711 602.743 661.003 594.427 664.255 586.505C676.993 555.47 694.736 527.256 713.457 499.554C734.374 468.604 756.987 438.973 780.943 410.348C793.501 395.343 806.281 380.524 818.983 365.64C819.28 365.293 819.844 365.175 820.629 364.924C822.28 370.88 823.855 376.818 824.831 382.853C826.395 392.522 827.603 402.25 828.852 411.967C829.029 413.347 828.589 414.806 828.532 416.852C828.777 418.271 828.925 419.065 829.073 419.86C829.037 431.906 829 443.953 828.86 456.82C828.635 460.395 828.514 463.148 828.392 465.9C828.306 466.353 828.219 466.806 828.097 467.916C828.094 469.003 828.128 469.433 828.162 469.862C827.419 476.023 826.676 482.183 825.88 488.762C825.827 489.18 825.975 489.38 825.975 489.38C825.648 490.914 825.32 492.449 824.852 494.749C824.544 496.642 824.377 497.771 824.209 498.899C824.122 499.344 824.036 499.789 823.753 500.864C822.812 505.296 822.069 509.098 821.326 512.9C821.219 513.348 821.113 513.795 820.858 514.847C820.537 516.267 820.365 517.083 820.194 517.899C817.77 526.931 815.347 535.963 812.609 545.572C807.299 558.59 802.458 571.095 797.246 583.443C794.173 590.723 790.511 597.755 787.113 604.898C787.113 604.898 786.988 605.335 786.634 605.669C784.505 608.964 782.731 611.925 780.957 614.887C780.957 614.887 780.969 614.896 780.748 614.975C780.213 615.241 780.105 615.51 780.203 615.863C780.203 615.863 779.963 616.284 779.65 616.694C778.216 619.036 777.094 620.967 775.972 622.897C775.972 622.897 775.969 622.896 775.682 623.067C773.878 625.765 772.363 628.294 770.847 630.822C770.847 630.822 770.932 630.88 770.611 630.988C768.168 634.354 766.046 637.613 763.924 640.872C763.924 640.872 763.972 640.893 763.671 641.019C762.546 642.382 761.723 643.619 760.9 644.856C760.9 644.856 760.964 644.892 760.662 645C759.844 646.004 759.328 646.901 758.813 647.797C758.813 647.797 758.892 647.83 758.638 647.878C758.229 648.243 758.075 648.561 757.92 648.878C757.92 648.878 757.972 648.892 757.662 649.028C755.518 651.717 753.684 654.27 751.85 656.823C751.85 656.823 751.935 656.88 751.615 656.987C749.45 659.669 747.605 662.244 745.76 664.819C745.408 664.867 745.168 665.057 744.712 665.761C743.864 667.034 743.346 667.937 742.827 668.84C742.411 668.853 741.995 668.866 740.929 668.858C726.92 659.828 713.561 650.818 700.042 641.526C698.949 640.735 698.016 640.226 697.052 639.764C697.02 639.812 697.128 639.775 696.988 639.487C695.92 638.714 694.992 638.228 694.035 637.789C694.007 637.835 694.107 637.795 693.963 637.509C692.898 636.701 691.977 636.178 690.881 635.381C689.762 634.705 688.819 634.302 687.843 633.572C686.862 632.828 685.916 632.413 684.753 631.939C684.538 631.881 684.093 631.85 684.019 631.514C681.952 629.719 679.959 628.26 677.854 626.583C677.309 626.16 676.876 625.955 676.235 625.461C672.675 623.005 669.324 620.838 665.882 618.469C665.398 618.078 665.006 617.891 664.412 617.409C662.487 615.98 660.762 614.846 658.891 613.454C657.876 612.741 657.008 612.286 656.086 611.595C656.032 611.359 655.977 610.877 655.977 610.877Z" fill="#609448"/>
<path d="M171.076 248.18C179.467 235.847 187.08 222.884 196.437 211.334C209.36 195.381 223.598 180.492 237.639 165C241.319 174.523 245.112 184.06 247.866 193.887C260.08 237.474 263.331 282.024 259.839 326.948C255.689 380.33 239.059 429.963 211.813 476.017C206.904 484.315 201.479 492.306 195.912 500.961C193.253 504.725 191.117 508.08 188.664 511.185C183.562 517.646 178.556 524.215 173.025 530.298C166.064 537.953 158.658 545.207 151.361 552.552C148.683 555.248 145.767 557.708 142.722 560.069C141.354 558.662 140.225 557.462 139.121 555.913C139.072 555.107 138.997 554.65 138.982 553.81C137.018 546.396 134.994 539.365 133.014 531.972C132.982 531.132 132.905 530.654 132.921 529.798C132.362 527.043 131.712 524.664 131.097 521.931C131.044 521.113 130.955 520.649 130.939 519.784C130.712 517.595 130.421 515.804 130.112 514.017C128.744 506.117 127.372 498.218 126.059 489.921C125.975 488.739 125.833 487.955 125.816 486.79C125.642 484.705 125.344 483.001 125.098 480.846C125.021 477.987 124.892 475.579 124.879 472.75C124.662 469.662 124.329 466.996 124.06 463.915C124.052 462.391 123.98 461.282 124.005 459.715C124.414 446.517 124.696 433.774 125.051 421.033C125.235 414.434 125.548 407.839 125.9 400.892C126 400.06 126.004 399.578 126.295 398.851C126.627 396.818 126.67 395.029 126.836 392.84C126.98 391.329 127.001 390.218 127.306 388.847C128.67 381.468 129.75 374.349 130.925 366.877C130.997 366.041 130.975 365.557 131.255 364.844C133.313 356.877 135.05 349.135 136.832 341.404C138.538 334.006 140.291 326.619 142.209 318.918C142.623 317.455 142.852 316.3 143.32 314.986C143.629 314.289 143.7 313.752 143.91 312.852C145.051 309.37 146.051 306.251 147.341 302.928C148.655 299.555 149.68 296.387 150.846 292.882C151.403 291.15 151.818 289.755 152.439 288.234C152.904 287.881 153.029 287.596 153.2 286.949C153.7 285.293 154.02 283.941 154.656 282.426C156.602 279.036 158.385 275.876 159.83 272.569C163.066 265.158 166.133 257.674 169.269 250.22C169.269 250.22 169.199 250.22 169.521 250.196C170.254 249.508 170.665 248.844 171.076 248.18Z" fill="#099BB6"/>
<path d="M473.729 522.547L412 480C433.69 562.475 472.097 595.743 561 645C521.751 599.905 501.157 573.877 473.729 522.547Z" fill="#1684B2"/>
<path d="M853 794L469 519C496.059 568.159 515.804 594.794 555 641.5C701.545 745.473 763.722 774.342 853 794Z" fill="#316542"/>
<path d="M420 473.016C498 518.514 555.5 545.014 612.5 601.016C589.5 515.514 516 464.014 420 473.016Z" fill="#316542"/>
</svg>
