<svg width="45" height="44" viewBox="0 0 45 44" fill="none" xmlns="http://www.w3.org/2000/svg">
<path d="M24 0.000488281C23.446 0.000488281 23 0.446488 23 1.00049V2.00049C23 2.55449 23.446 3.00049 24 3.00049H34.0039L34.0195 9.48486C34.0215 10.3102 34.6903 10.9787 35.5156 10.981L42 10.998V39.5C42 40.3569 41.3569 41 40.5 41H17.5C16.6431 41 16 40.3569 16 39.5V38C16 37.446 15.554 37 15 37H14C13.446 37 13 37.446 13 38V39.5C13 41.9671 15.0329 44 17.5 44H40.5C42.9671 44 45 41.9671 45 39.5V9.01367C44.9999 8.61587 44.8418 8.23443 44.5605 7.95312L37.0468 0.439453C36.7656 0.158053 36.3841 0.0001 35.9863 0L24 0.000488281ZM13 21.0005C13 21.5545 13.446 22.0005 14 22.0005H15C15.554 22.0005 16 21.5545 16 21.0005V11.0005C16 10.4465 15.554 10.0005 15 10.0005H14C13.446 10.0005 13 10.4465 13 11.0005V21.0005Z" fill="#B5B6BA"/>
<path d="M17.5 0.000488281C15.0329 0.000488281 13 2.03339 13 4.50049V7.00049C13 7.55449 13.446 8.00049 14 8.00049H15C15.554 8.00049 16 7.55449 16 7.00049V4.50049C16 3.64359 16.6431 3.00049 17.5 3.00049H20C20.554 3.00049 21 2.55449 21 2.00049V1.00049C21 0.446488 20.554 0.000488281 20 0.000488281H17.5ZM2 24.0005C0.89199 24.0005 0 24.8925 0 26.0005V33.0005C0 34.1085 0.89199 35.0005 2 35.0005H27C28.108 35.0005 29 34.1085 29 33.0005V26.0005C29 24.8925 28.108 24.0005 27 24.0005H2ZM14.3945 26.5884C15.9223 26.5884 17.0215 27.8008 17.0215 29.5005C17.0215 31.2097 15.9223 32.4126 14.3945 32.4126C12.8858 32.4126 11.7598 31.2097 11.7598 29.5005C11.7598 27.7913 12.8476 26.5884 14.3945 26.5884ZM20.2148 26.5884C20.6636 26.5884 21.0944 26.6926 21.5527 26.8931C21.6673 26.6831 21.7724 26.5981 21.9824 26.5981C22.2784 26.5981 22.4121 26.7224 22.4121 27.1235L22.4221 28.3345C22.4221 28.7355 22.3253 28.8794 21.9338 28.8794C21.6474 28.8794 21.5334 28.7359 21.4475 28.4399C21.2947 27.8956 21.0178 27.6099 20.3303 27.6099C19.385 27.6099 18.8499 28.2592 18.8499 29.5005C18.8499 30.7418 19.4223 31.4204 20.3772 31.4204C20.6159 31.4204 20.9126 31.3613 21.2659 31.2563V30.5317H20.7405C20.349 30.5317 20.1584 30.4076 20.1584 30.0161C20.1584 29.6246 20.349 29.5005 20.7405 29.5005H22.4221C22.8136 29.5005 23.0139 29.6052 23.0139 30.0063C23.0139 30.3405 22.8325 30.522 22.4983 30.522H22.4221V31.6294V31.686C22.422 31.8578 22.4131 31.9142 22.2599 32.0102C22.0021 32.163 21.2088 32.4126 20.2443 32.4126C18.602 32.4126 17.5041 31.2193 17.5041 29.5005C17.5041 27.8677 18.6202 26.5884 20.2148 26.5884ZM6.55078 26.7407H8.54492C8.92687 26.7407 9.11914 26.8839 9.11914 27.2563C9.11914 27.6382 8.92687 27.772 8.54492 27.772H8.13477V31.2466H10.2559V30.4165C10.2559 30.0154 10.3893 29.8247 10.7617 29.8247C11.1437 29.8247 11.2676 30.025 11.2676 30.4165V31.8481C11.2676 32.1822 11.1708 32.2681 10.7793 32.2681H6.55078C6.16883 32.2681 5.98633 32.1344 5.98633 31.7524C5.98633 31.3705 6.16883 31.2466 6.55078 31.2466H6.96094V27.772H6.55078C6.16883 27.772 5.98633 27.6382 5.98633 27.2563C5.98633 26.8839 6.16883 26.7407 6.55078 26.7407ZM14.3945 27.6665C13.6115 27.6665 13.1055 28.3165 13.1055 29.5005C13.1055 30.6846 13.6306 31.3423 14.3945 31.3423C15.168 31.3423 15.6836 30.6941 15.6836 29.5005C15.6836 28.3069 15.168 27.6665 14.3945 27.6665Z" fill="#B5B6BA"/>
</svg>
