<svg width="84" height="61" viewBox="0 0 84 61" fill="none" xmlns="http://www.w3.org/2000/svg">
<path d="M38.1599 40.2926C33.6834 38.2523 30.9499 33.8127 31.4831 29.5963C32.1106 24.6337 35.3259 21.1055 40.0733 20.17C45.6477 19.0715 51.049 22.7467 52.2147 28.4317C53.3512 33.9742 49.8083 39.4877 44.3635 40.7265C42.2805 41.2004 40.2692 41.0701 38.1599 40.2926Z" fill="#535355"/>
<path d="M75.224 46.1568C77.5098 41.3547 78.6839 36.3776 78.721 31.2149C78.7929 21.2022 75.4586 12.4414 68.5731 5.10252C68.3128 4.82505 68.0337 4.55698 67.8198 4.24565C67.0334 3.10134 67.1725 1.48877 68.1049 0.656521C69.1218 -0.251047 70.5196 -0.236739 71.6492 0.818754C74.4177 3.40565 76.595 6.46635 78.5014 9.71976C87.6696 25.3654 84.9963 46.6765 72.2593 59.6155C72.1447 59.7319 72.0344 59.8527 71.916 59.965C70.6023 61.2108 69.0731 61.3186 68.0072 60.2422C67.0039 59.2291 67.0431 57.5098 68.1959 56.2734C70.4705 53.8339 72.5184 51.2325 74.1285 48.3019C74.4952 47.6344 74.8247 46.9464 75.224 46.1568Z" fill="#535355"/>
<path d="M1.58915 42.0752C-2.2476 27.0012 0.850942 13.6979 11.0166 2.07963C11.4102 1.62969 11.822 1.18485 12.281 0.805073C13.5609 -0.253978 14.9302 -0.227232 15.9403 0.831957C16.856 1.79211 16.8844 3.4742 15.8547 4.54011C13.8758 6.58857 12.1055 8.79569 10.6494 11.2361C6.48276 18.2193 4.6355 25.7202 5.39006 33.8931C6.18424 42.4953 9.68673 49.7794 15.4966 56.0471C16.8144 57.4687 16.9744 59.1774 15.8947 60.2573C14.7455 61.4066 13.2302 61.21 11.7658 59.703C6.92406 54.7203 3.56391 48.8746 1.58915 42.0752Z" fill="#535355"/>
<path d="M65.7652 19.4048C64.5493 16.8077 63.034 14.5626 61.1379 12.5769C60.9126 12.341 60.6826 12.1054 60.4892 11.844C59.5608 10.5894 59.6193 9.04647 60.6167 8.13566C61.6146 7.22438 63.1978 7.226 64.3107 8.32235C65.3916 9.38721 66.4021 10.5473 67.3001 11.7712C76.3935 24.1651 75.3083 41.1188 64.7393 52.2628C63.4161 53.658 61.851 53.9075 60.7245 52.9028C59.4586 51.7736 59.5121 50.1298 60.9653 48.6099C65.5292 43.8364 67.852 38.0777 68.2442 31.563C68.4964 27.3744 67.5446 23.3463 65.7652 19.4048Z" fill="#535355"/>
<path d="M15.9029 33.4108C16.4687 38.9239 18.6054 43.5952 22.108 47.6631C22.5338 48.1576 23.0189 48.6043 23.4155 49.1201C24.4324 50.4427 24.314 51.9179 23.1514 52.9074C22.0647 53.8322 20.6374 53.7374 19.5014 52.5767C15.7374 48.7306 13.0183 44.2482 11.6691 39.0205C8.72233 27.6024 11.2291 17.4953 19.137 8.75051C20.377 7.37926 21.8731 7.08802 23.0374 7.95381C24.154 8.78409 24.3893 9.92628 23.8235 11.1439C23.534 11.767 23.0113 12.2957 22.5389 12.817C19.165 16.5398 17.0134 20.8723 16.1221 25.8127C15.6775 28.2766 15.3692 30.7622 15.9029 33.4108Z" fill="#535355"/>
<path d="M26.3561 28.6516C25.8432 33.7022 27.3361 37.9098 30.6503 41.5293C31.9172 42.9129 31.8618 44.367 30.6676 45.416C29.6085 46.3463 28.0011 46.2073 26.8436 45.0852C19.1984 37.6734 19.0557 23.8108 26.5481 16.2098C27.1226 15.6271 27.6903 15.0471 28.5976 14.9985C29.7107 14.939 30.658 15.1959 31.2277 16.2438C31.8631 17.4127 31.5811 18.4812 30.7326 19.3951C29.3473 20.8874 28.239 22.5507 27.4216 24.4123C26.8485 25.7174 26.4939 27.08 26.3561 28.6516Z" fill="#535355"/>
<path d="M54.0233 45.9162C52.0106 44.4401 51.8636 43.1751 53.3814 41.3719C59.2305 34.4231 59.2222 26.3765 53.3589 19.5863C52.1382 18.1726 52.0528 16.699 53.1308 15.6507C54.1864 14.6242 55.9498 14.7942 57.201 16.0431C64.6863 23.5147 64.7967 37.0357 57.4636 44.7136C56.5234 45.6981 55.5173 46.2597 54.0233 45.9162Z" fill="#535355"/>
</svg>
