<svg width="549" height="356" viewBox="0 0 549 356" fill="none" xmlns="http://www.w3.org/2000/svg">
<path d="M37.7461 309.456C25.6435 273.102 13.6499 237.129 1.65683 201.156C1.34099 200.209 1.00432 199.267 0.721121 198.31C-1.70671 190.105 2.08976 184.828 10.6938 184.781C27.6869 184.686 44.6809 184.731 61.6746 184.731C218.616 184.733 375.557 184.738 532.499 184.742C534.498 184.742 536.5 184.689 538.496 184.768C547.277 185.115 551.101 192.05 546.839 199.734C533.927 223.007 520.888 246.213 508.202 269.608C493.984 295.827 474.468 316.966 448.944 332.406C424.068 347.454 397.083 355.694 367.929 355.735C273.132 355.869 178.334 355.83 83.5358 355.777C64.4239 355.766 49.7905 344.964 43.6617 326.835C41.7442 321.163 39.7917 315.503 37.7461 309.456ZM176.974 265.88C183.827 270.567 189.556 270.71 195.226 266.335C199.938 262.699 201.944 256.202 200.034 250.759C197.949 244.821 193.144 240.938 187.093 240.771C181.147 240.607 176.378 243.065 173.673 248.493C170.594 254.67 171.704 260.379 176.974 265.88ZM108.874 249.487C106.748 255.299 107.467 260.664 111.907 265.09C115.793 268.964 120.52 270.59 125.999 268.875C132.357 266.886 136.661 261.086 136.529 254.774C136.4 248.586 132.008 243.038 125.874 241.311C119.206 239.434 113.41 242.022 108.874 249.487ZM236.562 257.337C238.712 265.49 244.507 270.092 251.837 269.466C258.749 268.876 264.6 262.848 264.944 255.963C265.35 247.852 259.108 240.995 251.075 240.726C242.496 240.439 236.433 247.007 236.562 257.337Z" fill="#282936"/>
<path d="M166.75 179.202C131.307 179.202 96.3643 179.202 60.8446 179.202C60.8446 173.793 60.8438 168.852 60.8448 163.911C60.8473 150.418 60.8207 136.925 60.8652 123.432C60.8904 115.789 64.1659 112.545 71.884 112.543C128.688 112.523 185.493 112.555 242.297 112.477C246.956 112.471 250.412 114.023 252.502 118.193C262.187 137.523 271.842 156.868 281.481 176.22C281.899 177.06 282.059 178.03 282.421 179.202C243.817 179.202 205.534 179.202 166.75 179.202Z" fill="#282936"/>
<path d="M119.751 48.3103C133.222 48.3104 146.194 48.3104 159.473 48.3104C159.473 67.7716 159.473 86.9932 159.473 106.484C140.222 106.484 120.985 106.484 101.374 106.484C101.374 87.2825 101.374 68.0899 101.374 48.3101C107.375 48.3101 113.313 48.3101 119.751 48.3103Z" fill="#282936"/>
<path d="M118.754 0.000656128C132.552 1.2794e-07 145.851 0 159.473 0C159.473 11.5352 159.473 22.7484 159.473 34.2419C140.238 34.2419 120.993 34.2419 101.377 34.2419C101.377 23.0747 101.377 11.8607 101.377 0.00131226C107.025 0.00131226 112.64 0.00131213 118.754 0.000656128Z" fill="#191718"/>
</svg>
