<svg width="374" height="374" viewBox="0 0 374 374" fill="none" xmlns="http://www.w3.org/2000/svg">
<path d="M0.474684 162.283C0.378279 141.977 0.272994 121.671 0.190261 101.365C0.160628 94.0935 0.1855 86.8221 0.1855 80.3969C11.5644 86.0413 22.5998 92.482 34.3411 97.1456C61.9111 108.096 90.9971 112.893 120.315 116.299C158.143 120.692 196.053 121.012 234.005 118.195C240.303 117.727 246.584 117.02 253.513 116.362C253.513 130.82 253.513 145.087 253.005 159.822C249.713 159.957 246.931 159.358 244.144 159.335C231.5 159.231 218.852 159.412 206.209 159.212C202.537 159.155 201.309 160.174 201.356 163.968C201.549 179.772 201.437 195.581 201.438 211.387C201.438 225.419 201.439 225.247 215.305 225.391C219.583 225.436 220.593 224.011 220.532 219.978C220.314 205.505 220.518 191.027 220.383 176.552C220.354 173.335 221.321 172.001 224.64 172.255C230.574 172.709 236.525 172.942 242.453 173.278C242.438 173.288 242.458 173.256 242.458 173.677C243.128 178.16 243.797 182.223 244.45 186.288C244.434 186.289 244.439 186.257 244.706 186.558C247.744 187.007 250.515 187.156 253.285 187.306C253.361 189.632 253.502 191.958 253.502 194.284C253.514 251.117 253.511 307.95 253.511 364.783C253.511 366.424 253.511 368.065 253.511 370.402C239.619 371.286 226.054 372.513 212.465 372.948C165.88 374.441 119.506 372.405 73.6621 363.252C56.4887 359.823 39.5592 355.442 23.8549 347.398C19.5786 345.208 15.4153 342.659 11.5841 339.767C3.84444 333.923 -0.0975966 326.416 0.0411364 316.2C0.462004 285.207 0.224791 254.204 0.70146 222.705C5.14232 219.732 9.77255 217.862 10.7801 212.237C20.1927 202.853 19.1967 181.028 11.38 170.867C10.7613 170.062 9.43237 169.804 8.33382 169.066C8.03548 168.557 7.76843 168.374 7.39787 167.968C6.72143 167.192 6.08012 166.739 5.40712 165.939C3.74184 164.489 2.10826 163.386 0.474684 162.283ZM114.107 166.801C113.541 166.635 112.976 166.469 112.442 166.293C112.442 166.293 112.421 166.321 112.371 165.602C110.383 164.502 108.396 163.402 106.439 162.286C106.439 162.286 106.434 162.32 106.115 161.66C104.653 160.949 103.214 159.68 101.726 159.618C92.5153 159.239 83.2731 158.708 74.0849 159.144C70.481 159.315 66.9897 161.857 63.4376 163.287C63.4376 163.287 63.4644 163.308 62.7282 163.289C61.301 164.632 59.8737 165.975 58.4382 167.284C58.4382 167.284 58.471 167.297 57.7672 167.349C56.3333 168.644 54.5966 169.727 53.5135 171.269C45.2744 183 45.2021 200.541 53.5362 212.735C55.2861 215.295 58.1294 217.108 60.4425 219.291C60.4425 219.291 60.4498 219.257 60.7411 219.889C61.2406 220.319 61.677 220.876 62.2488 221.16C76.268 228.128 90.7098 227.64 105.245 223.253C107.197 222.664 108.709 220.622 110.441 219.286C110.441 219.286 110.407 219.273 111.15 219.289C114.714 218.259 117.282 216.341 117.436 212.291C117.436 212.291 117.403 212.275 118.109 212.195C124.855 204.229 125.376 194.842 123.805 185.212C123.103 180.907 123.365 175.828 118.436 173.288C118.436 173.288 118.413 173.309 118.432 172.574C117.697 171.822 116.963 171.071 115.848 170.131C115.613 169.948 115.472 169.71 115.409 168.78C115.076 168.286 114.743 167.793 114.438 167.287C114.438 167.287 114.425 167.316 114.107 166.801ZM137.639 218.727C137.915 218.912 138.191 219.097 138.431 219.283C138.431 219.283 138.451 219.254 138.533 219.968C147.28 226.361 156.859 226.63 166.758 223.542C168.179 223.099 169.203 221.386 170.438 220.288C170.438 220.288 170.41 220.262 171.086 220.198C172.037 219.444 172.988 218.69 174.158 217.763C174.423 220.47 174.641 222.702 174.895 225.289C179.81 225.289 184.3 225.06 188.753 225.359C192.571 225.615 193.557 224.174 193.516 220.507C193.34 204.687 193.441 188.865 193.44 173.043C193.439 159.206 193.437 159.351 179.756 159.201C175.723 159.156 174.26 160.128 174.343 164.421C174.608 178.073 174.283 191.735 174.536 205.387C174.612 209.488 173.214 210.739 169.383 210.311C162.687 209.563 155.973 208.969 148.834 207.978C148.678 207.464 148.522 206.951 148.917 205.911C148.757 195.141 148.515 184.371 148.458 173.6C148.379 158.931 148.441 159.052 133.827 159.204C130.226 159.242 129.337 160.483 129.376 163.853C129.529 177 129.026 190.171 129.67 203.289C129.886 207.686 132.792 211.952 134.433 216.283C134.433 216.283 134.457 216.255 134.543 216.957C135.518 217.395 136.493 217.834 137.44 218.292C137.44 218.292 137.443 218.259 137.639 218.727ZM22.4368 188.788C22.4369 199.603 22.5103 210.419 22.3888 221.232C22.3558 224.172 23.186 225.493 26.3341 225.335C30.4833 225.127 34.6526 225.209 38.8097 225.312C41.2303 225.372 42.473 224.696 42.4664 221.968C42.4042 196.511 42.4045 171.054 42.4653 145.597C42.4719 142.863 41.2076 142.201 38.7967 142.263C34.806 142.364 30.7964 142.499 26.8219 142.226C23.1887 141.977 22.3416 143.502 22.3777 146.857C22.5244 160.499 22.4375 174.144 22.4368 188.788Z" fill="#282936"/>
<path d="M247.919 2.68869C276.43 5.46724 304.342 9.1874 331.098 18.439C340.611 21.7284 349.606 26.6214 358.606 31.233C361.775 32.8568 364.552 35.5543 366.997 38.229C376.231 48.332 376.183 59.4403 365.316 67.6538C356.545 74.2836 346.61 79.8334 336.445 84.0698C312.007 94.2539 286.07 98.9516 259.923 102.271C217.281 107.685 174.523 108.161 131.744 104.231C98.6581 101.191 65.9235 96.0048 35.0095 83.2095C25.7462 79.3754 16.6781 74.2573 8.79243 68.0989C-2.8698 58.9911 -2.70749 47.3171 7.95477 36.863C17.6167 27.3897 29.8877 22.5269 42.399 18.3421C67.0097 10.1104 92.4973 6.10049 118.203 3.44754C161.252 -0.995258 204.351 -1.0308 247.919 2.68869Z" fill="#282936"/>
<path d="M333.354 178.276C333.377 153.625 333.472 128.973 333.342 104.322C333.324 100.83 334.188 99.168 337.68 97.9225C350.24 93.4428 362.183 87.6566 373.486 78.4224C373.486 105.325 373.486 131.339 372.96 157.817C365.963 158.259 359.703 158.992 354.091 163.318C352.979 164.331 352.205 165.306 351.109 166.318C350.338 166.999 349.889 167.644 349.214 168.389C348.705 168.687 348.523 168.954 348.085 169.323C346.3 172.001 344.872 174.647 343.073 177.355C338.797 184.41 338.384 192.01 340.221 199.442C341.338 203.959 344.306 208.019 346.441 212.651C348.124 217.766 351.255 220.767 356.596 221.613C362.27 223.391 367.782 224.848 373.294 226.304C373.364 248.427 373.439 270.549 373.501 292.672C373.521 299.826 372.979 307.029 373.622 314.125C374.794 327.063 368.865 335.996 358.435 342.228C350.705 346.846 342.423 350.542 333.452 355.127C333.452 304.668 333.452 255.949 333.501 206.31C333.485 196.352 333.42 187.314 333.354 178.276Z" fill="#282936"/>
<path d="M289.869 110.775C300.004 108.531 309.727 106.401 319.856 104.181C319.856 109.797 319.856 115.328 319.856 121.355C302.511 124.822 284.96 128.33 267.01 131.918C267.01 125.936 267.01 120.525 267.01 114.682C274.477 113.42 281.967 112.153 289.869 110.775Z" fill="#282936"/>
<path d="M290.297 146.881C300.432 144.638 310.155 142.507 320.284 140.288C320.284 145.904 320.284 151.435 320.284 157.462C302.939 160.929 285.388 164.437 267.438 168.024C267.438 162.043 267.438 156.632 267.438 150.789C274.904 149.526 282.394 148.26 290.297 146.881Z" fill="#282936"/>
<path d="M290.297 182.881C300.432 180.638 310.155 178.507 320.284 176.288C320.284 181.904 320.284 187.435 320.284 193.462C302.939 196.929 285.388 200.437 267.438 204.024C267.438 198.043 267.438 192.632 267.438 186.789C274.904 185.526 282.394 184.26 290.297 182.881Z" fill="#282936"/>
<path d="M354.43 163.28C359.703 158.992 365.963 158.259 372.871 158.277C373.37 158.452 373.431 158.63 373.599 159.071C373.706 159.334 373.465 159.363 372.963 159.341C366.477 160.668 360.495 162.017 354.491 163.344C354.471 163.323 354.43 163.28 354.43 163.28Z" fill="#282936"/>
<path d="M373.363 225.958C367.782 224.848 362.27 223.391 356.607 221.599C356.456 221.264 356.476 221.236 356.868 221.254C362.595 222.29 367.93 223.309 373.264 224.327C373.264 224.327 373.473 224.194 373.595 224.218C373.621 224.698 373.527 225.155 373.363 225.958Z" fill="#282936"/>
<path d="M0.154572 221.562C0.130967 221.146 0.210176 220.973 0.696198 220.406C4.20885 217.432 7.31468 214.853 10.4253 212.278C10.4301 212.282 10.4315 212.282 10.4315 212.282C9.77248 217.862 5.14224 219.732 0.812516 222.248C0.396531 222.129 0.326951 221.967 0.154572 221.562Z" fill="#282936"/>
<path d="M244.706 186.558C247.13 185.934 249.82 185.611 252.931 185.264C253.382 185.703 253.411 186.164 253.363 186.966C250.515 187.156 247.744 187.007 244.706 186.558Z" fill="#282936"/>
<path d="M0.353771 162.546C2.10832 163.386 3.74189 164.489 5.3986 165.95C5.42175 166.308 5.40466 166.329 5.0798 166.283C3.33636 165.25 1.91778 164.264 0.499202 163.277C0.499202 163.277 0.232509 163.358 0.0947681 163.337C0.0489311 163.147 0.140865 162.977 0.353771 162.546Z" fill="#282936"/>
<path d="M267.015 365.985C267.48 365.554 267.813 365.406 268.146 365.257C267.956 365.896 267.767 366.534 267.291 367.334C266.965 367.086 266.924 366.677 267.015 365.985Z" fill="#282936"/>
<path d="M170.748 220.23C171.096 217.404 171.967 214.772 176.083 215.605C176.322 218.07 176.542 220.336 176.831 223.317C181.209 223.317 185.485 223.479 189.731 223.193C190.681 223.129 192.295 221.497 192.302 220.577C192.452 200.778 192.416 180.977 192.416 160.334C187.674 160.334 183.23 160.074 178.864 160.539C177.912 160.64 176.558 163.324 176.538 164.833C176.357 178.322 176.433 191.814 176.434 205.305C176.434 207.087 176.434 208.87 176.434 211.238C168.564 211.238 161.287 211.362 154.022 211.134C152.559 211.089 151.138 209.707 149.482 208.626C155.974 208.969 162.687 209.563 169.383 210.311C173.214 210.74 174.612 209.488 174.536 205.387C174.283 191.735 174.608 178.073 174.343 164.421C174.26 160.128 175.723 159.156 179.756 159.201C193.437 159.351 193.439 159.206 193.44 173.043C193.441 188.865 193.34 204.687 193.516 220.507C193.557 224.175 192.571 225.616 188.753 225.359C184.3 225.06 179.81 225.289 174.895 225.289C174.642 222.702 174.423 220.47 174.158 217.763C172.988 218.69 172.037 219.444 170.748 220.23Z" fill="#282936"/>
<path d="M148.641 206.174C148.051 204.689 147.474 202.943 147.462 201.193C147.381 189.366 147.281 177.535 147.494 165.711C147.568 161.593 146.25 160.165 142.062 160.21C131.399 160.324 131.398 160.153 131.4 170.576C131.401 178.406 131.499 186.237 131.372 194.065C131.253 201.394 131.139 208.686 134.466 215.89C132.792 211.952 129.886 207.686 129.67 203.289C129.026 190.171 129.529 177 129.376 163.853C129.337 160.483 130.226 159.242 133.827 159.204C148.441 159.052 148.379 158.931 148.458 173.6C148.515 184.371 148.757 195.141 148.641 206.174Z" fill="#282936"/>
<path d="M58.119 167.323C55.8805 171.813 52.2554 176.04 50.901 180.9C47.3609 193.603 48.617 205.735 58.4157 215.805C59.1999 216.611 59.7495 217.645 60.4384 218.919C58.1293 217.108 55.286 215.295 53.5362 212.735C45.2021 200.541 45.2743 183 53.5135 171.269C54.5965 169.727 56.3332 168.644 58.119 167.323Z" fill="#282936"/>
<path d="M60.5955 219.573C61.5611 219.506 62.788 219.532 63.766 220.039C75.274 226 87.4298 225.043 99.5571 223.159C103.05 222.616 106.323 220.655 110.061 219.299C108.709 220.622 107.197 222.664 105.245 223.253C90.7097 227.64 76.2679 228.128 62.2488 221.16C61.6769 220.876 61.2406 220.319 60.5955 219.573Z" fill="#282936"/>
<path d="M8.43347 169.292C9.43233 169.804 10.7612 170.062 11.38 170.867C19.1966 181.028 20.1927 202.853 10.7801 212.237C10.4316 212.282 10.4302 212.282 10.4604 211.916C11.1871 210.051 11.9005 208.559 12.5772 207.05C17.4711 196.141 17.4059 185.365 11.6418 174.77C10.6315 172.913 9.495 171.125 8.42175 169.3C8.42671 169.296 8.43347 169.292 8.43347 169.292Z" fill="#282936"/>
<path d="M117.756 212.235C119.092 205.953 121.212 199.706 122.35 193.286C123.544 186.549 121.489 180.122 118.449 173.68C123.365 175.828 123.103 180.907 123.805 185.212C125.376 194.842 124.855 204.229 117.756 212.235Z" fill="#282936"/>
<path d="M106.274 161.99C100.609 161.311 94.7386 159.276 88.9718 159.538C80.6833 159.914 72.4707 161.962 63.8364 163.308C66.9897 161.857 70.4809 159.316 74.0848 159.144C83.273 158.708 92.5152 159.239 101.726 159.618C103.214 159.68 104.653 160.949 106.274 161.99Z" fill="#282936"/>
<path d="M138.492 219.611C144.115 220.603 149.737 222.756 155.455 223.051C160.132 223.292 164.924 221.318 170.038 220.293C169.203 221.386 168.179 223.099 166.758 223.542C156.859 226.63 147.28 226.361 138.492 219.611Z" fill="#282936"/>
<path d="M110.779 219.281C112.548 217.033 114.689 214.792 117.127 212.404C117.282 216.341 114.714 218.259 110.779 219.281Z" fill="#282936"/>
<path d="M242.458 173.677C243.117 174.844 244.126 176.384 244.352 178.032C244.682 180.434 244.449 182.914 244.461 185.823C243.797 182.223 243.128 178.16 242.458 173.677Z" fill="#282936"/>
<path d="M112.396 165.962C110.521 165.18 108.62 164.038 106.564 162.599C108.396 163.402 110.383 164.502 112.396 165.962Z" fill="#282936"/>
<path d="M63.0963 163.298C61.9926 164.556 60.5209 165.805 58.7478 167.186C59.8737 165.975 61.301 164.632 63.0963 163.298Z" fill="#282936"/>
<path d="M118.422 172.942C117.743 172.522 117.074 171.734 116.316 170.633C116.963 171.071 117.697 171.822 118.422 172.942Z" fill="#282936"/>
<path d="M134.5 216.606C135.367 216.733 136.278 217.21 137.328 217.98C136.493 217.834 135.518 217.395 134.5 216.606Z" fill="#282936"/>
<path d="M5.43019 166.297C6.08006 166.739 6.72137 167.192 7.39583 167.97C7.42899 168.296 7.41991 168.304 7.15556 168.183C6.39565 167.484 5.90009 166.906 5.40454 166.329C5.40454 166.329 5.42163 166.308 5.43019 166.297Z" fill="#282936"/>
<path d="M115.417 169.098C115.092 168.917 114.758 168.418 114.417 167.61C114.743 167.793 115.076 168.286 115.417 169.098Z" fill="#282936"/>
<path d="M114.266 167.058C113.864 167.145 113.304 166.975 112.577 166.554C112.976 166.469 113.541 166.635 114.266 167.058Z" fill="#282936"/>
<path d="M137.541 218.493C137.713 218.448 137.984 218.637 138.36 219.054C138.191 219.097 137.915 218.912 137.541 218.493Z" fill="#282936"/>
<path d="M7.43098 168.294C7.76839 168.374 8.03543 168.557 8.33377 169.066C8.43347 169.292 8.42671 169.296 8.19972 169.197C7.69579 168.897 7.51151 168.633 7.41992 168.304C7.41992 168.304 7.429 168.296 7.43098 168.294Z" fill="#282936"/>
<path d="M346.442 212.284C344.306 208.019 341.338 203.959 340.221 199.442C338.384 192.01 338.797 184.41 343.075 177.356C343.447 177.294 343.457 177.301 343.413 177.694C342.722 181.655 341.947 185.205 341.451 188.793C340.291 197.2 342.89 204.848 346.46 212.271C346.454 212.275 346.442 212.284 346.442 212.284Z" fill="#282936"/>
<path d="M356.445 221.277C351.255 220.767 348.124 217.766 346.441 212.651C346.442 212.284 346.454 212.275 346.755 212.421C350.197 215.456 353.336 218.346 356.476 221.236C356.476 221.236 356.456 221.264 356.445 221.277Z" fill="#282936"/>
<path d="M343.445 177.293C344.872 174.647 346.3 172.001 348.093 169.329C348.456 169.303 348.472 169.316 348.42 169.659C346.732 172.435 345.094 174.868 343.457 177.301C343.457 177.301 343.447 177.294 343.445 177.293Z" fill="#282936"/>
<path d="M351.432 166.282C352.205 165.306 352.979 164.33 354.091 163.318C354.43 163.28 354.471 163.323 354.444 163.673C353.438 164.796 352.459 165.569 351.468 166.326C351.456 166.311 351.432 166.282 351.432 166.282Z" fill="#282936"/>
<path d="M349.44 168.289C349.889 167.644 350.338 166.999 351.109 166.318C351.432 166.282 351.456 166.311 351.342 166.586C350.639 167.345 350.052 167.83 349.458 168.308C349.452 168.301 349.44 168.289 349.44 168.289Z" fill="#282936"/>
<path d="M348.448 169.296C348.523 168.954 348.705 168.687 349.214 168.389C349.44 168.289 349.452 168.301 349.354 168.529C349.059 169.033 348.798 169.22 348.472 169.316C348.472 169.316 348.456 169.303 348.448 169.296Z" fill="#282936"/>
<path d="M71.4122 207.32C64.0042 202.119 64.787 194.295 65.838 187.074C67.4189 176.212 72.8601 172.3 84.1111 172.284C86.2767 172.281 88.4437 172.339 90.6077 172.282C96.9939 172.112 101.578 175.153 104.097 180.745C107.758 188.87 107.846 197.084 102.787 205.147C102.46 205.31 102.434 205.284 102.436 204.883C102.939 202.74 103.657 201.028 103.904 199.251C105.485 187.878 105.548 176.299 89.9381 173.572C77.5343 171.406 65.4252 178.816 67.517 191.786C68.3623 197.028 70.1039 202.125 71.4326 207.294C71.4275 207.3 71.4122 207.32 71.4122 207.32Z" fill="#282936"/>
<path d="M98.5253 208.38C96.6909 209.436 94.9752 210.968 93.0005 211.459C86.5039 213.074 80.0376 212.866 73.6456 209.594C73.4339 209.29 73.4338 209.291 73.8632 209.283C82.411 210.704 90.4928 211.25 98.4525 208.302C98.4763 208.328 98.5253 208.38 98.5253 208.38Z" fill="#282936"/>
<path d="M102.473 205.324C102.023 205.97 101.56 206.603 100.773 207.269C100.449 207.303 100.438 207.288 100.473 206.965C101.151 206.189 101.792 205.737 102.434 205.284C102.434 205.284 102.46 205.31 102.473 205.324Z" fill="#282936"/>
<path d="M73.4259 209.297C72.8257 208.821 72.2337 208.339 71.5269 207.588C71.4122 207.32 71.4275 207.3 71.7568 207.329C72.5354 208.002 72.9847 208.647 73.4339 209.291C73.4339 209.291 73.434 209.29 73.4259 209.297Z" fill="#282936"/>
<path d="M100.457 207.313C100.011 207.655 99.5582 207.987 98.8154 208.35C98.5254 208.38 98.4764 208.328 98.618 208.054C99.319 207.615 99.8783 207.451 100.438 207.288C100.438 207.288 100.449 207.303 100.457 207.313Z" fill="#282936"/>
<path d="M316.426 184.296C316.29 183.856 316.169 183.405 316.047 182.955C316.175 183.229 316.302 183.504 316.447 184.019C316.465 184.26 316.44 184.285 316.426 184.296Z" fill="#282936"/>
<path d="M314.881 180.83C314.841 180.766 314.921 180.895 314.881 180.83V180.83Z" fill="#282936"/>
<path d="M313.991 178.747C313.951 178.682 314.03 178.811 313.991 178.747V178.747Z" fill="#282936"/>
<path d="M289.297 218.881C299.432 216.638 309.155 214.507 319.284 212.288C319.284 217.904 319.284 223.435 319.284 229.462C301.939 232.929 284.388 236.437 266.438 240.024C266.438 234.043 266.438 228.632 266.438 222.789C273.904 221.526 281.394 220.26 289.297 218.881Z" fill="#282936"/>
<path d="M289.725 254.988C299.86 252.745 309.582 250.614 319.711 248.394C319.711 254.01 319.711 259.542 319.711 265.568C302.366 269.035 284.816 272.543 266.865 276.131C266.865 270.15 266.865 264.738 266.865 258.895C274.332 257.633 281.822 256.367 289.725 254.988Z" fill="#282936"/>
<path d="M315.853 292.402C315.718 291.963 315.597 291.512 315.475 291.062C315.602 291.336 315.73 291.61 315.875 292.126C315.893 292.367 315.867 292.392 315.853 292.402Z" fill="#282936"/>
<path d="M314.308 288.937C314.269 288.872 314.348 289.002 314.308 288.937V288.937Z" fill="#282936"/>
<path d="M313.418 286.853C313.379 286.788 313.458 286.918 313.418 286.853V286.853Z" fill="#282936"/>
<path d="M361.368 204.354C360.713 203.923 359.812 203.644 359.439 203.039C355.72 197.003 356.916 184.137 362.028 178.295C362.401 178.253 362.447 178.294 362.405 178.665C358.045 187.305 358.432 195.746 361.426 204.3C361.406 204.317 361.368 204.354 361.368 204.354Z" fill="#282936"/>
<path d="M373.284 210.27C373.345 210.73 373.406 211.189 373.407 211.992C368.56 211.242 363.544 210.525 361.382 204.718C361.368 204.354 361.406 204.317 361.73 204.447C365.798 206.475 369.541 208.373 373.284 210.27Z" fill="#282936"/>
<path d="M372.932 172.245C373.381 172.693 373.435 173.155 373.013 173.95C369.503 174.951 366.469 175.618 363.432 176.283C363.429 176.281 363.411 176.269 363.411 176.269C366.453 174.932 369.494 173.595 372.932 172.245Z" fill="#282936"/>
<path d="M362.379 178.232C362.543 177.668 362.729 177.126 363.163 176.426C363.411 176.269 363.429 176.281 363.421 176.583C363.091 177.355 362.769 177.825 362.447 178.294C362.447 178.294 362.401 178.253 362.379 178.232Z" fill="#282936"/>
<path d="M362.405 178.665C362.769 177.825 363.091 177.355 363.424 176.585C366.469 175.618 369.503 174.951 372.939 174.291C373.39 185.984 373.438 197.669 373.385 209.812C369.541 208.373 365.798 206.475 361.75 204.43C358.432 195.746 358.045 187.305 362.405 178.665Z" fill="#282936"/>
<path d="M100.474 206.965C99.8783 207.451 99.319 207.615 98.5942 208.027C90.4929 211.25 82.4111 210.704 73.8633 209.283C72.9847 208.647 72.5354 208.002 71.7619 207.322C70.1039 202.125 68.3624 197.028 67.517 191.786C65.4252 178.816 77.5343 171.406 89.9382 173.572C105.548 176.299 105.485 187.878 103.904 199.251C103.657 201.028 102.939 202.74 102.436 204.883C101.792 205.737 101.151 206.189 100.474 206.965Z" fill="#282936"/>
<rect x="0.437622" y="139.288" width="253" height="92" fill="#282936"/>
<rect x="338.438" y="147.288" width="35" height="92" fill="#282936"/>
<rect x="338.438" y="147.288" width="35" height="92" fill="#282936"/>
<path d="M320.438 294.288L267.438 305.788V367.288L320.438 357.788V294.288Z" fill="#282936"/>
</svg>
