<svg width="375" height="375" viewBox="0 0 375 375" fill="none" xmlns="http://www.w3.org/2000/svg">
<path d="M1.03706 162.996C0.940657 142.689 0.835371 122.383 0.752638 102.077C0.723005 94.8059 0.747878 87.5345 0.747878 81.1093C12.1268 86.7537 23.1622 93.1944 34.9035 97.858C62.4734 108.809 91.5595 113.606 120.877 117.011C158.706 121.404 196.615 121.724 234.568 118.907C240.866 118.439 247.146 117.732 254.075 117.075C254.075 131.533 254.075 145.799 253.567 160.534C250.275 160.669 247.493 160.07 244.707 160.048C232.062 159.943 219.414 160.124 206.772 159.925C203.1 159.867 201.872 160.886 201.918 164.68C202.111 180.485 202 196.293 202 212.1C202 226.132 202.002 225.959 215.868 226.104C220.145 226.148 221.155 224.723 221.094 220.69C220.877 206.218 221.08 191.739 220.946 177.265C220.916 174.047 221.883 172.713 225.202 172.967C231.136 173.421 237.088 173.654 243.016 173.99C243 174 243.02 173.969 243.02 174.389C243.69 178.873 244.359 182.936 245.013 187C244.997 187.001 245.001 186.97 245.268 187.27C248.306 187.72 251.077 187.869 253.848 188.018C253.923 190.344 254.064 192.67 254.064 194.997C254.077 251.83 254.074 308.663 254.074 365.496C254.074 367.136 254.074 368.777 254.074 371.115C240.181 371.999 226.617 373.225 213.027 373.661C166.442 375.154 120.068 373.118 74.2245 363.964C57.0511 360.535 40.1216 356.154 24.4173 348.111C20.141 345.92 15.9776 343.372 12.1465 340.479C4.40681 334.635 0.464781 327.129 0.603514 316.913C1.02438 285.919 0.787169 254.917 1.26384 223.418C5.7047 220.444 10.3349 218.575 11.3425 212.949C20.7551 203.565 19.759 181.741 11.9424 171.579C11.3237 170.775 9.99475 170.517 8.89619 169.779C8.59785 169.27 8.33081 169.087 7.96025 168.68C7.28381 167.904 6.6425 167.452 5.9695 166.652C4.30421 165.202 2.67064 164.099 1.03706 162.996ZM114.669 167.513C114.104 167.347 113.538 167.182 113.004 167.005C113.004 167.005 112.984 167.034 112.933 166.314C110.946 165.214 108.958 164.115 107.001 162.999C107.001 162.999 106.996 163.033 106.677 162.373C105.215 161.662 103.777 160.392 102.289 160.331C93.0777 159.951 83.8355 159.42 74.6473 159.857C71.0434 160.028 67.5521 162.569 64 163.999C64 163.999 64.0268 164.02 63.2906 164.002C61.8634 165.345 60.4361 166.688 59.0006 167.997C59.0006 167.997 59.0334 168.009 58.3296 168.061C56.8956 169.357 55.159 170.439 54.0759 171.982C45.8367 183.712 45.7645 201.253 54.0986 213.447C55.8485 216.008 58.6918 217.821 61.0049 220.003C61.0049 220.003 61.0122 219.969 61.3035 220.601C61.803 221.031 62.2393 221.588 62.8112 221.872C76.8303 228.84 91.2721 228.353 105.808 223.965C107.759 223.376 109.272 221.335 111.003 219.998C111.003 219.998 110.97 219.986 111.712 220.001C115.276 218.972 117.844 217.053 117.998 213.003C117.998 213.003 117.966 212.988 118.671 212.907C125.418 204.941 125.938 195.554 124.368 185.924C123.665 181.62 123.927 176.54 118.999 174.001C118.999 174.001 118.975 174.022 118.994 173.286C118.26 172.535 117.525 171.783 116.411 170.844C116.176 170.661 116.035 170.422 115.971 169.492C115.638 168.999 115.305 168.506 115.001 167.999C115.001 167.999 114.987 168.028 114.669 167.513ZM138.202 219.439C138.477 219.624 138.753 219.809 138.993 219.995C138.993 219.995 139.014 219.966 139.095 220.68C147.842 227.073 157.422 227.342 167.32 224.255C168.741 223.812 169.766 222.098 171 221C171 221 170.972 220.974 171.649 220.91C172.6 220.157 173.551 219.403 174.721 218.476C174.985 221.182 175.204 223.415 175.457 226.001C180.373 226.001 184.862 225.772 189.316 226.071C193.133 226.328 194.119 224.887 194.079 221.219C193.902 205.4 194.003 189.577 194.002 173.755C194.002 159.919 193.999 160.064 180.318 159.913C176.286 159.868 174.823 160.84 174.906 165.134C175.17 178.785 174.845 192.448 175.098 206.1C175.174 210.201 173.776 211.452 169.945 211.024C163.249 210.275 156.536 209.682 149.397 208.691C149.241 208.177 149.085 207.663 149.479 206.623C149.319 195.853 149.078 185.083 149.02 174.313C148.942 159.643 149.003 159.764 134.389 159.917C130.788 159.954 129.899 161.195 129.938 164.565C130.091 177.713 129.589 190.883 130.232 204.001C130.448 208.399 133.355 212.664 134.995 216.995C134.995 216.995 135.019 216.967 135.105 217.669C136.08 218.108 137.055 218.546 138.002 219.005C138.002 219.005 138.005 218.971 138.202 219.439ZM22.9992 189.5C22.9993 200.315 23.0727 211.131 22.9512 221.945C22.9182 224.884 23.7483 226.205 26.8964 226.047C31.0457 225.839 35.215 225.922 39.3721 226.024C41.7927 226.084 43.0354 225.408 43.0288 222.68C42.9665 197.223 42.9668 171.766 43.0277 146.31C43.0343 143.575 41.7699 142.914 39.3591 142.975C35.3684 143.076 31.3588 143.212 27.3842 142.939C23.7511 142.689 22.904 144.215 22.94 147.57C23.0868 161.212 22.9998 174.856 22.9992 189.5Z" fill="#B5B6BA"/>
<path d="M248.481 3.40109C276.993 6.17964 304.905 9.89981 331.661 19.1514C341.174 22.4408 350.168 27.3338 359.168 31.9454C362.337 33.5692 365.114 36.2668 367.559 38.9414C376.793 49.0444 376.746 60.1527 365.879 68.3662C357.107 74.996 347.173 80.5458 337.007 84.7822C312.569 94.9663 286.633 99.664 260.485 102.984C217.844 108.397 175.086 108.874 132.307 104.943C99.2205 101.903 66.4858 96.7172 35.5719 83.9219C26.3086 80.0878 17.2405 74.9697 9.35481 68.8113C-2.30742 59.7035 -2.14511 48.0295 8.51715 37.5754C18.1791 28.1021 30.4501 23.2393 42.9614 19.0545C67.5721 10.8228 93.0597 6.81289 118.766 4.15994C161.814 -0.282856 204.913 -0.318393 248.481 3.40109Z" fill="#B5B6BA"/>
<path d="M333.917 178.989C333.94 154.337 334.035 129.685 333.905 105.034C333.886 101.543 334.751 99.8804 338.242 98.6349C350.802 94.1552 362.745 88.3691 374.049 79.1348C374.049 106.037 374.049 132.051 373.522 158.53C366.526 158.972 360.266 159.704 354.654 164.03C353.541 165.043 352.768 166.018 351.672 167.03C350.9 167.711 350.451 168.356 349.776 169.101C349.268 169.399 349.085 169.667 348.647 170.035C346.863 172.714 345.434 175.359 343.635 178.067C339.359 185.122 338.946 192.723 340.784 200.154C341.901 204.672 344.868 208.731 347.003 213.364C348.686 218.479 351.817 221.48 357.159 222.325C362.832 224.104 368.345 225.56 373.857 227.017C373.927 249.139 374.001 271.262 374.063 293.384C374.083 300.539 373.542 307.741 374.184 314.838C375.356 327.775 369.428 336.708 358.998 342.94C351.267 347.559 342.985 351.255 334.014 355.84C334.014 305.38 334.014 256.661 334.063 207.023C334.047 197.065 333.982 188.027 333.917 178.989Z" fill="#B5B6BA"/>
<path d="M290.432 111.487C300.567 109.244 310.289 107.113 320.418 104.893C320.418 110.509 320.418 116.041 320.418 122.067C303.073 125.534 285.523 129.042 267.572 132.63C267.572 126.649 267.572 121.237 267.572 115.394C275.039 114.132 282.529 112.866 290.432 111.487Z" fill="#B5B6BA"/>
<path d="M290.859 147.594C300.995 145.35 310.717 143.22 320.846 141C320.846 146.616 320.846 152.147 320.846 158.174C303.501 161.641 285.95 165.149 268 168.737C268 162.755 268 157.344 268 151.501C275.467 150.239 282.957 148.973 290.859 147.594Z" fill="#B5B6BA"/>
<path d="M290.859 183.594C300.995 181.35 310.717 179.22 320.846 177C320.846 182.616 320.846 188.147 320.846 194.174C303.501 197.641 285.95 201.149 268 204.737C268 198.755 268 193.344 268 187.501C275.467 186.239 282.957 184.973 290.859 183.594Z" fill="#B5B6BA"/>
<path d="M354.993 163.993C360.266 159.704 366.526 158.972 373.433 158.99C373.932 159.164 373.993 159.343 374.161 159.784C374.268 160.046 374.028 160.075 373.525 160.054C367.04 161.381 361.057 162.729 355.054 164.056C355.033 164.035 354.993 163.993 354.993 163.993Z" fill="#B5B6BA"/>
<path d="M373.925 226.671C368.344 225.56 362.832 224.104 357.169 222.312C357.018 221.976 357.038 221.948 357.431 221.967C363.158 223.003 368.492 224.021 373.827 225.039C373.827 225.039 374.036 224.907 374.157 224.93C374.184 225.411 374.089 225.868 373.925 226.671Z" fill="#B5B6BA"/>
<path d="M0.717011 222.274C0.693406 221.858 0.772615 221.686 1.25864 221.118C4.77129 218.144 7.87712 215.566 10.9878 212.991C10.9926 212.995 10.994 212.995 10.994 212.995C10.3349 218.575 5.70468 220.444 1.37495 222.961C0.95897 222.841 0.88939 222.68 0.717011 222.274Z" fill="#B5B6BA"/>
<path d="M245.268 187.27C247.692 186.646 250.383 186.323 253.494 185.977C253.944 186.415 253.974 186.877 253.926 187.678C251.077 187.869 248.306 187.72 245.268 187.27Z" fill="#B5B6BA"/>
<path d="M0.916088 163.258C2.67063 164.099 4.30421 165.202 5.96092 166.662C5.98407 167.02 5.96698 167.041 5.64212 166.995C3.89868 165.963 2.4801 164.976 1.06152 163.99C1.06152 163.99 0.794826 164.07 0.657085 164.049C0.611248 163.859 0.703182 163.69 0.916088 163.258Z" fill="#B5B6BA"/>
<path d="M267.577 366.697C268.042 366.266 268.375 366.118 268.708 365.97C268.519 366.608 268.329 367.247 267.854 368.046C267.527 367.798 267.486 367.389 267.577 366.697Z" fill="#B5B6BA"/>
<path d="M171.31 220.942C171.658 218.116 172.529 215.484 176.646 216.318C176.885 218.782 177.104 221.049 177.393 224.03C181.771 224.03 186.047 224.192 190.293 223.905C191.243 223.841 192.858 222.209 192.865 221.29C193.014 201.49 192.978 181.69 192.978 161.046C188.236 161.046 183.793 160.786 179.426 161.251C178.474 161.352 177.12 164.036 177.1 165.546C176.919 179.034 176.996 192.526 176.996 206.017C176.996 207.8 176.996 209.582 176.996 211.951C169.126 211.951 161.85 212.075 154.584 211.847C153.121 211.801 151.7 210.42 150.045 209.339C156.536 209.682 163.249 210.275 169.945 211.024C173.776 211.452 175.174 210.201 175.098 206.1C174.845 192.448 175.17 178.785 174.906 165.134C174.823 160.84 176.286 159.868 180.318 159.913C193.999 160.064 194.002 159.919 194.002 173.755C194.003 189.577 193.902 205.4 194.079 221.22C194.119 224.887 193.133 226.328 189.316 226.071C184.862 225.772 180.373 226.001 175.457 226.001C175.204 223.415 174.985 221.182 174.721 218.476C173.551 219.403 172.6 220.157 171.31 220.942Z" fill="#B5B6BA"/>
<path d="M149.204 206.886C148.613 205.401 148.036 203.655 148.024 201.905C147.943 190.078 147.843 178.247 148.056 166.423C148.13 162.305 146.813 160.878 142.624 160.922C131.961 161.037 131.96 160.865 131.962 171.288C131.964 179.118 132.062 186.949 131.934 194.777C131.815 202.107 131.702 209.398 135.029 216.602C133.355 212.664 130.448 208.399 130.232 204.001C129.589 190.884 130.091 177.713 129.938 164.565C129.899 161.195 130.788 159.954 134.389 159.917C149.003 159.764 148.942 159.643 149.02 174.313C149.078 185.083 149.319 195.853 149.204 206.886Z" fill="#B5B6BA"/>
<path d="M58.6815 168.035C56.443 172.525 52.8178 176.752 51.4635 181.612C47.9233 194.316 49.1794 206.448 58.9781 216.517C59.7624 217.323 60.3119 218.357 61.0008 219.632C58.6917 217.821 55.8484 216.008 54.0986 213.447C45.7645 201.253 45.8367 183.712 54.0759 171.982C55.159 170.439 56.8956 169.357 58.6815 168.035Z" fill="#B5B6BA"/>
<path d="M61.1578 220.285C62.1235 220.219 63.3504 220.245 64.3284 220.751C75.8364 226.712 87.9922 225.755 100.119 223.871C103.613 223.328 106.886 221.368 110.624 220.012C109.272 221.335 107.759 223.376 105.808 223.965C91.2721 228.353 76.8303 228.84 62.8112 221.872C62.2393 221.588 61.8029 221.031 61.1578 220.285Z" fill="#B5B6BA"/>
<path d="M8.99585 170.005C9.99471 170.517 11.3236 170.775 11.9423 171.579C19.759 181.741 20.7551 203.565 11.3424 212.949C10.994 212.995 10.9926 212.995 11.0228 212.629C11.7495 210.763 12.4628 209.271 13.1396 207.762C18.0335 196.853 17.9682 186.077 12.2042 175.482C11.1939 173.625 10.0574 171.837 8.98413 170.013C8.98909 170.009 8.99585 170.005 8.99585 170.005Z" fill="#B5B6BA"/>
<path d="M118.318 212.948C119.654 206.665 121.774 200.419 122.912 193.998C124.106 187.262 122.051 180.835 119.011 174.393C123.927 176.54 123.665 181.62 124.368 185.924C125.938 195.554 125.418 204.941 118.318 212.948Z" fill="#B5B6BA"/>
<path d="M106.837 162.703C101.172 162.024 95.301 159.988 89.5343 160.25C81.2458 160.626 73.0331 162.675 64.3989 164.021C67.5521 162.569 71.0434 160.028 74.6472 159.857C83.8355 159.42 93.0777 159.951 102.289 160.331C103.777 160.392 105.215 161.662 106.837 162.703Z" fill="#B5B6BA"/>
<path d="M139.054 220.323C144.677 221.315 150.299 223.468 156.017 223.763C160.694 224.004 165.486 222.03 170.6 221.005C169.766 222.098 168.741 223.812 167.32 224.255C157.422 227.342 147.842 227.073 139.054 220.323Z" fill="#B5B6BA"/>
<path d="M111.341 219.993C113.111 217.745 115.252 215.504 117.689 213.117C117.844 217.053 115.276 218.972 111.341 219.993Z" fill="#B5B6BA"/>
<path d="M243.021 174.389C243.679 175.557 244.688 177.097 244.914 178.744C245.244 181.147 245.011 183.626 245.024 186.536C244.359 182.936 243.69 178.873 243.021 174.389Z" fill="#B5B6BA"/>
<path d="M112.958 166.674C111.083 165.892 109.182 164.75 107.126 163.312C108.958 164.115 110.946 165.214 112.958 166.674Z" fill="#B5B6BA"/>
<path d="M63.6587 164.011C62.555 165.268 61.0833 166.517 59.3102 167.898C60.4361 166.688 61.8633 165.345 63.6587 164.011Z" fill="#B5B6BA"/>
<path d="M118.985 173.654C118.306 173.234 117.636 172.446 116.879 171.345C117.525 171.783 118.26 172.535 118.985 173.654Z" fill="#B5B6BA"/>
<path d="M135.062 217.318C135.93 217.445 136.84 217.923 137.891 218.693C137.055 218.546 136.08 218.108 135.062 217.318Z" fill="#B5B6BA"/>
<path d="M5.99263 167.009C6.6425 167.452 7.28381 167.904 7.95827 168.683C7.99142 169.008 7.98235 169.017 7.718 168.895C6.95808 168.196 6.46252 167.619 5.96698 167.041C5.96698 167.041 5.98407 167.02 5.99263 167.009Z" fill="#B5B6BA"/>
<path d="M115.979 169.81C115.654 169.63 115.32 169.131 114.979 168.322C115.305 168.506 115.638 168.999 115.979 169.81Z" fill="#B5B6BA"/>
<path d="M114.828 167.771C114.427 167.858 113.866 167.687 113.139 167.266C113.538 167.182 114.104 167.347 114.828 167.771Z" fill="#B5B6BA"/>
<path d="M138.104 219.205C138.276 219.16 138.546 219.349 138.923 219.766C138.753 219.809 138.477 219.624 138.104 219.205Z" fill="#B5B6BA"/>
<path d="M7.99336 169.006C8.33076 169.087 8.59781 169.27 8.89615 169.779C8.99585 170.005 8.98909 170.009 8.7621 169.909C8.25816 169.61 8.07388 169.346 7.9823 169.017C7.9823 169.017 7.99138 169.008 7.99336 169.006Z" fill="#B5B6BA"/>
<path d="M347.005 212.996C344.868 208.731 341.901 204.672 340.784 200.154C338.946 192.723 339.359 185.122 343.637 178.068C344.009 178.006 344.019 178.014 343.976 178.407C343.284 182.367 342.509 185.917 342.014 189.505C340.853 197.913 343.453 205.56 347.023 212.983C347.016 212.988 347.005 212.996 347.005 212.996Z" fill="#B5B6BA"/>
<path d="M357.008 221.99C351.817 221.48 348.686 218.479 347.003 213.364C347.005 212.996 347.016 212.988 347.318 213.133C350.759 216.169 353.899 219.059 357.038 221.948C357.038 221.948 357.018 221.976 357.008 221.99Z" fill="#B5B6BA"/>
<path d="M344.007 178.006C345.434 175.359 346.863 172.714 348.655 170.042C349.018 170.015 349.034 170.028 348.983 170.371C347.294 173.147 345.656 175.581 344.019 178.014C344.019 178.014 344.009 178.006 344.007 178.006Z" fill="#B5B6BA"/>
<path d="M351.994 166.994C352.768 166.018 353.541 165.043 354.654 164.03C354.993 163.993 355.034 164.035 355.007 164.386C354.001 165.509 353.021 166.281 352.03 167.038C352.019 167.023 351.994 166.994 351.994 166.994Z" fill="#B5B6BA"/>
<path d="M350.002 169.001C350.451 168.356 350.9 167.711 351.672 167.03C351.994 166.994 352.018 167.023 351.904 167.298C351.202 168.058 350.614 168.542 350.02 169.02C350.014 169.014 350.002 169.001 350.002 169.001Z" fill="#B5B6BA"/>
<path d="M349.01 170.009C349.085 169.667 349.268 169.399 349.776 169.101C350.002 169.001 350.014 169.014 349.916 169.241C349.622 169.746 349.36 169.932 349.034 170.028C349.034 170.028 349.018 170.015 349.01 170.009Z" fill="#B5B6BA"/>
<path d="M71.9746 208.032C64.5666 202.832 65.3493 195.007 66.4004 187.786C67.9813 176.925 73.4225 173.012 84.6735 172.996C86.8391 172.993 89.0061 173.051 91.1701 172.994C97.5563 172.824 102.141 175.866 104.66 181.457C108.32 189.583 108.409 197.797 103.35 205.86C103.022 206.022 102.996 205.996 102.998 205.595C103.501 203.452 104.219 201.741 104.466 199.964C106.047 188.591 106.11 177.012 90.5005 174.285C78.0967 172.118 65.9876 179.529 68.0793 192.499C68.9247 197.74 70.6663 202.837 71.995 208.006C71.9899 208.013 71.9746 208.032 71.9746 208.032Z" fill="#B5B6BA"/>
<path d="M99.0877 209.092C97.2533 210.148 95.5376 211.681 93.5629 212.172C87.0662 213.786 80.6 213.579 74.208 210.306C73.9963 210.003 73.9962 210.004 74.4256 209.996C82.9734 211.417 91.0551 211.963 99.0149 209.014C99.0387 209.041 99.0877 209.092 99.0877 209.092Z" fill="#B5B6BA"/>
<path d="M103.035 206.036C102.585 206.682 102.122 207.315 101.335 207.981C101.012 208.015 101 208 101.036 207.677C101.713 206.902 102.355 206.449 102.996 205.996C102.996 205.996 103.022 206.022 103.035 206.036Z" fill="#B5B6BA"/>
<path d="M73.9883 210.009C73.3881 209.533 72.7961 209.051 72.0893 208.301C71.9746 208.032 71.9899 208.013 72.3192 208.041C73.0977 208.714 73.547 209.359 73.9963 210.004C73.9963 210.004 73.9964 210.003 73.9883 210.009Z" fill="#B5B6BA"/>
<path d="M101.019 208.026C100.573 208.368 100.121 208.7 99.3777 209.062C99.0877 209.092 99.0387 209.041 99.1804 208.766C99.8813 208.328 100.441 208.164 101 208C101 208 101.012 208.015 101.019 208.026Z" fill="#B5B6BA"/>
<path d="M316.988 185.008C316.853 184.568 316.731 184.118 316.61 183.667C316.737 183.942 316.864 184.216 317.009 184.732C317.027 184.973 317.002 184.997 316.988 185.008Z" fill="#B5B6BA"/>
<path d="M315.443 181.543C315.403 181.478 315.483 181.607 315.443 181.543V181.543Z" fill="#B5B6BA"/>
<path d="M314.553 179.459C314.513 179.394 314.593 179.524 314.553 179.459V179.459Z" fill="#B5B6BA"/>
<path d="M289.859 219.594C299.995 217.35 309.717 215.22 319.846 213C319.846 218.616 319.846 224.147 319.846 230.174C302.501 233.641 284.95 237.149 267 240.737C267 234.755 267 229.344 267 223.501C274.467 222.239 281.957 220.973 289.859 219.594Z" fill="#B5B6BA"/>
<path d="M290.287 255.7C300.422 253.457 310.145 251.326 320.274 249.107C320.274 254.723 320.274 260.254 320.274 266.281C302.929 269.748 285.378 273.256 267.428 276.844C267.428 270.862 267.428 265.451 267.428 259.608C274.895 258.345 282.384 257.079 290.287 255.7Z" fill="#B5B6BA"/>
<path d="M316.416 293.115C316.28 292.675 316.159 292.225 316.038 291.774C316.165 292.048 316.292 292.323 316.437 292.838C316.455 293.079 316.43 293.104 316.416 293.115Z" fill="#B5B6BA"/>
<path d="M314.871 289.649C314.831 289.585 314.911 289.714 314.871 289.649V289.649Z" fill="#B5B6BA"/>
<path d="M313.981 287.566C313.941 287.501 314.02 287.63 313.981 287.566V287.566Z" fill="#B5B6BA"/>
<path d="M361.931 205.066C361.275 204.635 360.374 204.356 360.002 203.751C356.282 197.715 357.478 184.849 362.591 179.007C362.964 178.965 363.009 179.007 362.968 179.377C358.608 188.017 358.995 196.458 361.988 205.012C361.969 205.03 361.931 205.066 361.931 205.066Z" fill="#B5B6BA"/>
<path d="M373.847 210.983C373.907 211.442 373.968 211.901 373.969 212.704C369.122 211.954 364.107 211.237 361.945 205.43C361.931 205.066 361.969 205.03 362.293 205.16C366.36 207.187 370.103 209.085 373.847 210.983Z" fill="#B5B6BA"/>
<path d="M373.494 172.957C373.944 173.405 373.997 173.867 373.575 174.662C370.065 175.663 367.031 176.33 363.995 176.996C363.992 176.994 363.974 176.981 363.974 176.981C367.015 175.644 370.056 174.308 373.494 172.957Z" fill="#B5B6BA"/>
<path d="M362.942 178.944C363.105 178.38 363.291 177.838 363.725 177.138C363.974 176.981 363.991 176.994 363.983 177.296C363.653 178.067 363.331 178.537 363.009 179.007C363.009 179.007 362.964 178.965 362.942 178.944Z" fill="#B5B6BA"/>
<path d="M362.968 179.377C363.331 178.537 363.653 178.067 363.986 177.298C367.031 176.33 370.065 175.663 373.501 175.004C373.952 186.697 374.001 198.382 373.948 210.525C370.104 209.085 366.36 207.187 362.312 205.142C358.995 196.458 358.608 188.017 362.968 179.377Z" fill="#B5B6BA"/>
<path d="M101.036 207.677C100.441 208.164 99.8813 208.328 99.1565 208.739C91.0552 211.963 82.9734 211.417 74.4257 209.996C73.547 209.359 73.0977 208.714 72.3242 208.035C70.6663 202.837 68.9247 197.74 68.0793 192.499C65.9875 179.529 78.0967 172.118 90.5005 174.285C106.11 177.012 106.047 188.591 104.466 199.964C104.219 201.741 103.501 203.452 102.998 205.595C102.355 206.449 101.713 206.902 101.036 207.677Z" fill="#B5B6BA"/>
<rect x="1" y="140" width="253" height="92" fill="#B5B6BA"/>
<rect x="339" y="148" width="35" height="92" fill="#B5B6BA"/>
<rect x="339" y="148" width="35" height="92" fill="#B5B6BA"/>
<path d="M321 295L268 306.5V368L321 358.5V295Z" fill="#B5B6BA"/>
</svg>
